<svg xmlns="http://www.w3.org/2000/svg" xml:space="preserve" fill-rule="evenodd" stroke-miterlimit="10" clip-rule="evenodd" viewBox="0 0 145 57">
  <path fill="#231f20" fill-rule="nonzero" d="M61.175 21.47c0-.417-.054-.791-.164-1.124-.11-.332-.267-.613-.471-.844-.206-.23-.455-.408-.749-.531-.294-.125-.628-.187-1-.187h-1.404v5.377h1.404c.372 0 .706-.061 1-.183.294-.123.543-.3.749-.532.204-.232.361-.514.471-.847.11-.333.164-.709.164-1.129m1.688 0c0 .581-.098 1.115-.293 1.603-.196.488-.471.907-.828 1.258-.356.351-.785.625-1.285.823-.5.196-1.056.295-1.666.295h-3.059v-7.953h3.059c.61 0 1.166.099 1.666.296.5.198.929.472 1.285.825.357.353.632.772.828 1.258.195.486.293 1.018.293 1.595"/>
  <path fill="#231f20" fill-rule="nonzero" d="M67.441 21.958c0-.158-.021-.308-.063-.451-.042-.142-.109-.268-.201-.377-.091-.11-.206-.197-.345-.261-.138-.063-.305-.095-.498-.095-.363 0-.646.102-.85.306-.204.205-.338.497-.4.877h2.357Zm-2.379.899c.047.53.198.917.452 1.162.254.244.586.367.995.367.208 0 .388-.024.54-.074.152-.049.285-.104.4-.164.115-.061.219-.114.312-.165.094-.048.186-.074.278-.074.116 0 .208.044.273.133l.439.549c-.162.184-.339.34-.532.462-.194.122-.395.22-.603.291-.208.07-.418.12-.63.148-.213.027-.417.041-.615.041-.394 0-.762-.066-1.103-.195-.343-.13-.64-.321-.894-.575-.254-.255-.454-.57-.6-.947-.146-.375-.219-.813-.219-1.309 0-.384.062-.746.189-1.085.125-.34.307-.636.545-.888.237-.252.526-.452.866-.6.34-.148.724-.222 1.151-.222.362 0 .695.057 1.001.172.304.116.567.283.789.502.221.219.392.489.515.809.122.319.184.684.184 1.093 0 .114-.006.206-.017.279-.011.073-.029.132-.054.176-.027.044-.061.074-.104.09-.045.016-.102.025-.171.025h-3.387Z"/>
  <path fill="#231f20" fill-rule="nonzero" d="M74.746 19.798v5.651h-.932c-.194 0-.318-.087-.373-.263l-.098-.395c-.113.11-.231.211-.351.302-.12.092-.25.169-.387.236-.136.065-.284.116-.444.153-.158.036-.331.055-.518.055-.306 0-.58-.054-.819-.159-.239-.106-.439-.254-.6-.444-.161-.19-.284-.417-.367-.68-.084-.263-.127-.552-.127-.866v-3.59h1.513v3.59c0 .314.073.559.217.732.145.173.359.261.644.261.212 0 .411-.047.597-.14.187-.094.364-.22.532-.382v-4.061h1.513Z"/>
  <path fill="#231f20" fill-rule="nonzero" d="M78.002 25.537c-.256 0-.482-.038-.679-.113-.198-.075-.364-.181-.5-.32-.135-.139-.237-.307-.306-.504-.069-.198-.104-.421-.104-.669v-3.048h-.532c-.08 0-.148-.025-.205-.077-.057-.05-.086-.127-.086-.229v-.592l.905-.165.307-1.463c.04-.165.152-.246.334-.246h.789v1.72h1.459v1.052h-1.459v2.949c0 .158.038.281.113.373.075.091.182.137.32.137.073 0 .135-.008.187-.024.051-.017.094-.035.131-.056.037-.019.07-.038.102-.054.031-.017.063-.025.096-.025.044 0 .08.01.109.03.029.02.058.054.089.102l.454.723c-.208.164-.444.289-.707.372-.263.085-.536.127-.817.127"/>
  <path fill="#231f20" fill-rule="nonzero" d="M83.757 20.96c-.04.062-.082.107-.124.134-.041.028-.099.041-.172.041-.073 0-.148-.017-.225-.054-.077-.036-.162-.076-.258-.118-.095-.042-.203-.082-.326-.118-.122-.037-.263-.054-.424-.054-.245 0-.435.049-.57.15-.135.101-.204.233-.204.398 0 .112.039.208.116.285.077.076.178.143.304.199.126.057.269.11.43.16.162.048.327.103.496.161.171.059.336.126.497.203.16.077.303.172.43.288.125.115.228.254.304.416.076.163.115.36.115.589 0 .275-.05.528-.151.759-.1.233-.248.432-.44.601-.195.168-.435.299-.724.394-.29.095-.621.143-.998.143-.194 0-.385-.018-.575-.053-.191-.034-.371-.083-.543-.148-.171-.063-.333-.137-.482-.221-.15-.084-.28-.176-.389-.274l.35-.564c.04-.067.091-.118.151-.154.06-.037.138-.056.233-.056.091 0 .176.024.252.069.077.046.162.096.258.148.095.053.207.103.336.148.131.046.292.068.486.068.146 0 .272-.015.378-.048.106-.033.192-.078.257-.134.067-.057.115-.121.145-.192.032-.072.047-.146.047-.222 0-.125-.039-.226-.118-.305-.078-.079-.181-.147-.306-.205-.127-.058-.272-.112-.436-.16-.165-.046-.332-.1-.501-.158-.171-.059-.337-.128-.5-.209-.162-.079-.306-.182-.433-.303-.125-.123-.227-.274-.306-.453-.079-.179-.118-.396-.118-.652 0-.234.046-.456.137-.666.091-.21.228-.395.411-.556.183-.161.411-.289.682-.384.273-.095.588-.143.946-.143.402 0 .767.067 1.096.198.329.131.599.303.811.515l-.345.537Z"/>
  <path fill="#231f20" fill-rule="nonzero" d="M89.249 21.059c-.045.058-.089.103-.132.134-.044.03-.106.046-.186.046-.073 0-.144-.02-.211-.062-.068-.043-.145-.089-.233-.137-.088-.05-.192-.096-.312-.138-.121-.042-.271-.063-.45-.063-.227 0-.423.041-.59.124-.165.081-.303.2-.413.353-.109.154-.191.34-.244.559-.053.219-.079.466-.079.74 0 .577.115 1.02.348 1.327.232.306.549.46.951.46.138 0 .258-.012.359-.036.1-.023.188-.054.263-.09.075-.037.14-.077.194-.12.055-.044.107-.085.156-.121.05-.037.099-.067.148-.091.049-.024.105-.036.167-.036.117 0 .209.044.275.132l.433.549c-.162.186-.333.34-.516.462-.182.123-.372.22-.567.291-.195.071-.394.121-.595.148-.2.027-.4.041-.598.041-.346 0-.675-.064-.985-.195-.311-.129-.583-.318-.817-.567-.234-.248-.419-.553-.557-.915-.137-.362-.205-.775-.205-1.239 0-.413.06-.796.181-1.151.12-.354.298-.661.531-.921.234-.259.524-.463.87-.611.344-.148.743-.222 1.197-.222.431 0 .809.069 1.134.208.325.14.617.34.877.604l-.394.537Z"/>
  <path fill="#231f20" fill-rule="nonzero" d="M92.022 20.352c.105-.095.216-.182.331-.261.115-.078.237-.146.367-.202.13-.057.268-.1.416-.132.148-.031.309-.046.48-.046.308 0 .579.053.817.158.237.106.438.254.6.445.163.19.285.417.368.679.083.263.124.552.124.866v3.591h-1.508v-3.591c0-.314-.073-.558-.219-.731-.147-.174-.362-.261-.647-.261-.211 0-.411.046-.597.137-.188.092-.364.219-.532.383l-.001 4.063H90.51l-.001-8.173h1.513l-.001 3.075Z"/>
  <path fill="#231f20" fill-rule="nonzero" d="M100.364 21.958c0-.158-.021-.308-.063-.451-.042-.142-.109-.268-.201-.377-.091-.11-.206-.197-.345-.261-.138-.063-.305-.095-.498-.095-.363 0-.646.102-.85.306-.204.205-.338.497-.4.877h2.357Zm-2.379.899c.047.53.198.917.452 1.162.254.244.586.367.995.367.208 0 .388-.024.54-.074.152-.049.285-.104.4-.164.115-.061.219-.114.312-.165.094-.048.186-.074.278-.074.116 0 .208.044.273.133l.439.549c-.162.184-.339.34-.532.462-.194.122-.395.22-.603.291-.208.07-.418.12-.63.148-.213.027-.417.041-.615.041-.394 0-.762-.066-1.103-.195-.343-.13-.64-.321-.894-.575-.254-.255-.454-.57-.6-.947-.146-.375-.219-.813-.219-1.309 0-.384.062-.746.189-1.085.125-.34.307-.636.545-.888.237-.252.526-.452.866-.6.34-.148.724-.222 1.151-.222.362 0 .695.057 1.001.172.304.116.567.283.789.502.221.219.392.489.515.809.122.319.184.684.184 1.093 0 .114-.006.206-.017.279-.011.073-.029.132-.054.176-.027.044-.061.074-.104.09-.045.016-.102.025-.171.025h-3.387Z"/>
  <path fill="#231f20" fill-rule="nonzero" d="M109.884 19.019c-.052.085-.104.146-.157.184-.052.039-.121.057-.205.057-.081 0-.167-.028-.261-.084-.092-.057-.201-.118-.326-.184-.123-.065-.267-.127-.427-.183-.161-.058-.349-.086-.565-.086-.38 0-.665.086-.855.255-.19.17-.285.392-.285.666 0 .176.052.321.157.436.104.115.241.215.41.299.171.084.363.158.578.224.216.067.437.139.664.217.227.078.448.171.663.277.216.106.409.239.579.4.169.16.306.357.411.589.104.232.156.514.156.847 0 .361-.063.701-.19 1.016-.125.316-.307.593-.545.828-.237.236-.531.422-.879.556-.35.135-.745.203-1.187.203-.253 0-.504-.025-.754-.076-.25-.052-.491-.123-.723-.215-.233-.09-.451-.2-.655-.328-.205-.128-.384-.27-.537-.428l.482-.778c.041-.059.093-.106.159-.145.065-.038.136-.058.209-.058.098 0 .202.037.312.11.109.073.235.153.377.241.144.088.309.168.497.241.188.073.413.11.677.11.384 0 .68-.088.891-.263.21-.176.315-.437.315-.784 0-.201-.053-.363-.157-.488-.104-.124-.24-.228-.408-.312-.168-.084-.36-.157-.576-.217-.215-.06-.437-.127-.662-.2-.227-.073-.448-.16-.664-.262-.215-.104-.407-.238-.575-.406-.169-.169-.305-.377-.409-.625-.104-.249-.156-.558-.156-.926 0-.296.059-.583.175-.861.117-.278.29-.524.515-.74.227-.215.505-.389.836-.521.331-.131.711-.197 1.138-.197.479 0 .922.074 1.329.222.407.148.752.354 1.033.616l-.405.773Z"/>
  <path fill="#231f20" fill-rule="nonzero" d="M113.633 25.537c-.256 0-.483-.038-.68-.113-.197-.075-.363-.181-.499-.32-.135-.139-.237-.307-.306-.504-.07-.198-.104-.421-.104-.669v-3.048h-.533c-.079 0-.148-.025-.205-.077-.056-.05-.085-.127-.085-.229v-.592l.905-.165.306-1.463c.041-.165.152-.246.335-.246h.789v1.72h1.458v1.052h-1.458v2.949c0 .158.037.281.112.373.075.091.182.137.321.137.073 0 .135-.008.186-.024.052-.017.095-.035.132-.056.036-.019.07-.038.102-.054.031-.017.062-.025.095-.025.044 0 .081.01.11.03.029.02.058.054.088.102l.454.723c-.208.164-.444.289-.707.372-.262.085-.535.127-.816.127"/>
  <path fill="#231f20" fill-rule="nonzero" d="M117.65 25.449h-1.513v-5.651h1.513v5.651Zm.181-7.257c0 .128-.026.246-.076.356-.052.11-.12.207-.206.291-.086.084-.187.15-.301.197-.115.048-.239.072-.37.072-.125 0-.243-.024-.355-.072-.11-.047-.209-.113-.292-.197-.084-.084-.151-.181-.2-.291-.05-.11-.075-.228-.075-.356 0-.127.025-.247.075-.359.049-.111.116-.209.2-.293.083-.084.182-.15.292-.197.112-.048.23-.071.355-.071.131 0 .255.023.37.071.114.047.215.113.301.197s.154.182.206.293c.05.112.076.232.076.359"/>
  <path fill="#231f20" fill-rule="nonzero" d="M119.19 25.449v-4.566l-.438-.077c-.114-.022-.206-.061-.277-.12-.071-.058-.107-.143-.107-.253v-.602h.822v-.373c0-.321.051-.613.151-.874.1-.262.244-.483.43-.664.187-.181.415-.32.685-.419.271-.098.576-.148.916-.148.131 0 .256.009.376.025.117.017.238.041.358.074l-.032.746c-.008.113-.057.187-.146.222-.09.034-.189.051-.299.051-.153 0-.291.017-.414.05-.122.033-.226.088-.309.167-.084.078-.148.184-.192.318-.044.133-.066.298-.066.496v.329h1.403v1.052h-1.354v4.566h-1.507Z"/>
  <path fill="#231f20" fill-rule="nonzero" d="M124.973 25.537c-.256 0-.483-.038-.68-.113-.197-.075-.363-.181-.499-.32-.135-.139-.237-.307-.306-.504-.07-.198-.104-.421-.104-.669v-3.048h-.533c-.079 0-.148-.025-.205-.077-.056-.05-.085-.127-.085-.229v-.592l.905-.165.306-1.463c.041-.165.152-.246.335-.246h.789v1.72h1.458v1.052h-1.458v2.949c0 .158.037.281.112.373.075.091.182.137.321.137.073 0 .135-.008.186-.024.052-.017.095-.035.132-.056.036-.019.07-.038.102-.054.031-.017.062-.025.095-.025.044 0 .081.01.11.03.029.02.058.054.088.102l.454.723c-.208.164-.444.289-.706.372-.263.085-.536.127-.817.127"/>
  <path fill="#231f20" fill-rule="nonzero" d="M132.174 19.798v5.651h-.931c-.194 0-.319-.087-.373-.263l-.099-.395c-.113.11-.23.211-.351.302-.12.092-.249.169-.386.236-.137.065-.285.116-.444.153-.159.036-.332.055-.519.055-.306 0-.58-.054-.818-.159-.239-.106-.44-.254-.6-.444-.161-.19-.284-.417-.367-.68-.085-.263-.127-.552-.127-.866v-3.59h1.512v3.59c0 .314.072.559.218.732.144.173.359.261.643.261.212 0 .411-.047.597-.14.187-.094.364-.22.533-.382v-4.061h1.512Z"/>
  <path fill="#231f20" fill-rule="nonzero" d="M134.882 20.456c.113-.11.231-.21.353-.302.123-.091.252-.169.39-.235.137-.066.285-.117.443-.154.159-.036.332-.054.518-.054.308 0 .579.053.818.158.237.106.436.254.599.445.163.19.285.416.368.679.082.263.123.552.123.866v3.59h-1.507v-3.59c0-.314-.074-.558-.22-.732-.146-.173-.361-.26-.646-.26-.212 0-.412.045-.598.137-.187.091-.364.219-.532.383v4.062h-1.512v-5.651h.931c.191 0 .316.088.379.263l.093.395Z"/>
  <path fill="#231f20" fill-rule="nonzero" d="M141.635 22.413c.31 0 .539-.079.688-.236.148-.157.222-.36.222-.609 0-.259-.074-.463-.222-.611-.149-.148-.378-.222-.688-.222-.31 0-.539.074-.685.222-.146.148-.22.352-.22.611 0 .246.074.447.223.607.148.158.374.238.682.238m1.431 3.266c0-.098-.032-.179-.094-.241s-.145-.111-.249-.148c-.104-.036-.228-.063-.37-.079-.143-.017-.295-.029-.455-.039-.161-.009-.327-.017-.499-.024-.172-.007-.34-.021-.505-.038-.127.076-.232.166-.314.27-.083.104-.124.222-.124.355 0 .09.021.175.064.252.042.076.112.142.21.196.099.056.229.098.389.13.162.031.362.046.604.046.248 0 .458-.016.63-.049.171-.033.311-.08.417-.14.105-.061.181-.133.226-.217.046-.084.07-.175.07-.274m1.501-5.694v.553c0 .088-.024.157-.074.208-.049.052-.13.09-.244.116l-.46.093c.062.179.093.371.093.575 0 .282-.057.535-.173.759-.115.225-.273.417-.474.576-.201.159-.438.281-.712.367-.274.086-.571.129-.888.129-.201 0-.389-.017-.564-.05-.154.096-.231.2-.231.313 0 .106.052.183.157.23.104.048.24.081.41.102.171.02.364.033.581.037.217.006.439.018.663.036.225.019.447.051.664.097.217.046.41.12.581.225.17.104.306.241.41.413.105.172.157.392.157.663 0 .252-.062.497-.187.735-.123.237-.303.449-.539.635-.236.187-.525.337-.869.45-.344.113-.735.17-1.173.17-.435 0-.812-.042-1.131-.123-.321-.083-.585-.192-.796-.329-.21-.138-.365-.295-.468-.474-.103-.179-.153-.366-.153-.56 0-.252.076-.465.229-.641.154-.175.366-.316.637-.422-.143-.08-.257-.186-.343-.315-.086-.129-.129-.299-.129-.507 0-.168.061-.345.184-.531.122-.187.311-.342.567-.467-.289-.153-.517-.359-.685-.617-.168-.256-.252-.557-.252-.901 0-.281.057-.535.172-.762.116-.226.275-.419.48-.578.204-.158.446-.28.723-.365.278-.083.58-.125.905-.125.482 0 .908.094 1.277.285h1.655Z"/>
  <path fill="#231f20" fill-rule="nonzero" d="M55.936 38.404v-4.566l-.439-.077c-.113-.022-.205-.061-.276-.12-.071-.058-.107-.143-.107-.253v-.602h.822v-.373c0-.321.05-.613.151-.874.1-.262.243-.483.43-.664.186-.181.415-.32.685-.419.271-.098.575-.148.915-.148.131 0 .257.009.376.025.118.017.238.041.359.074l-.033.746c-.007.113-.056.187-.145.222-.09.034-.189.051-.299.051-.154 0-.292.017-.414.05s-.226.088-.309.167c-.085.078-.149.184-.193.318-.044.133-.065.298-.065.496v.329h1.403v1.052h-1.354v4.566h-1.507Z"/>
  <path fill="#231f20" fill-rule="nonzero" d="M63.982 31.312c0 .11-.022.212-.066.307-.044.095-.102.178-.175.25-.073.071-.161.126-.261.166-.1.041-.207.06-.32.06-.11 0-.214-.019-.313-.06-.099-.04-.185-.095-.258-.166-.073-.072-.13-.155-.172-.25-.043-.095-.063-.197-.063-.307 0-.11.02-.214.063-.312.042-.099.099-.186.172-.261.073-.075.159-.134.258-.175.099-.042.203-.064.313-.064.113 0 .22.022.32.064.1.041.188.1.261.175.073.075.131.162.175.261.044.098.066.202.066.312m-2.275 0c0 .11-.022.212-.066.307-.043.095-.103.178-.178.25-.075.071-.162.126-.263.166-.101.041-.208.06-.321.06-.106 0-.207-.019-.304-.06-.096-.04-.182-.095-.255-.166-.073-.072-.132-.155-.175-.25-.044-.095-.065-.197-.065-.307 0-.11.021-.214.065-.312.043-.099.102-.186.175-.261.073-.075.159-.134.255-.175.097-.042.198-.064.304-.064.113 0 .22.022.321.064.101.041.188.1.263.175.075.075.135.162.178.261.044.098.066.202.066.312m2.801 1.441v5.652h-.932c-.193 0-.318-.088-.373-.264l-.099-.394c-.113.11-.229.21-.35.301-.121.092-.249.17-.387.236-.137.065-.285.117-.443.154-.16.036-.332.054-.518.054-.308 0-.581-.053-.819-.158-.24-.107-.44-.254-.601-.445-.16-.19-.283-.417-.367-.679-.084-.263-.126-.552-.126-.867v-3.59h1.512v3.59c0 .315.073.559.217.732.144.173.359.261.644.261.211 0 .411-.047.598-.14.186-.094.363-.22.531-.382v-4.061h1.513Z"/>
  <path fill="#231f20" fill-rule="nonzero" d="M67.232 33.685c.179-.322.385-.576.619-.762.234-.187.508-.279.822-.279.256 0 .465.059.625.18l-.098 1.118c-.019.073-.047.124-.085.151-.04.027-.09.041-.157.041-.058 0-.142-.008-.252-.025-.111-.016-.213-.024-.306-.024-.14 0-.264.019-.372.06-.107.04-.203.097-.287.17-.085.073-.16.162-.228.268-.067.106-.13.227-.189.362v3.459h-1.513v-5.651h.893c.154 0 .26.027.319.082.058.055.1.15.126.286l.082.564Z"/>
  <path fill="#231f20" fill-rule="nonzero" d="M74.297 31.739v2.045h2.653v1.243h-2.653v2.089h3.409v1.288h-5.064v-7.953h5.064v1.288h-3.409Z"/>
  <path fill="#231f20" fill-rule="nonzero" d="M80.08 33.411c.112-.11.23-.21.352-.302.123-.091.252-.169.39-.235.137-.066.285-.117.444-.154.158-.036.331-.054.517-.054.308 0 .579.053.817.158.237.106.438.254.6.445.164.19.286.416.368.679.083.263.124.552.124.866v3.59h-1.508v-3.59c0-.314-.073-.558-.219-.731-.146-.174-.362-.261-.647-.261-.211 0-.411.045-.597.137-.188.091-.364.219-.532.383l-.001 4.062h-1.511l-.001-5.651h.932c.19 0 .316.088.379.263l.093.395Z"/>
  <path fill="#231f20" fill-rule="nonzero" d="M87.051 35.368c.311 0 .54-.079.688-.236.147-.157.221-.36.221-.609 0-.259-.074-.463-.222-.611-.148-.148-.377-.222-.688-.222-.31 0-.538.074-.685.222-.146.148-.219.352-.219.611 0 .246.074.447.222.607.148.158.375.238.682.238m1.431 3.266c0-.098-.032-.179-.093-.241-.062-.062-.145-.111-.25-.148-.104-.036-.227-.063-.37-.079-.142-.017-.293-.029-.454-.039-.161-.009-.327-.017-.5-.024-.171-.007-.339-.021-.504-.038-.127.076-.231.166-.315.27-.082.104-.123.222-.123.354.001.091.022.176.064.253.042.076.113.142.211.196.099.056.229.098.389.13.161.031.362.046.604.046.248 0 .458-.016.629-.049.172-.033.311-.08.417-.14.106-.061.181-.133.227-.217.046-.084.069-.175.069-.274m1.501-5.694v.553c0 .088-.025.157-.074.208-.049.052-.131.09-.244.116l-.46.093c.062.179.093.371.093.575 0 .282-.058.535-.173.759-.115.225-.274.417-.474.576-.202.159-.439.281-.712.367-.275.086-.571.129-.889.129-.2 0-.388-.017-.564-.05-.153.096-.23.2-.23.313 0 .106.051.183.156.23.104.048.241.081.411.101.17.021.363.034.581.038.217.006.438.018.663.036.225.019.446.051.664.097.217.046.41.12.581.225.169.104.306.241.41.413.105.172.157.392.157.663 0 .252-.062.497-.187.735-.124.237-.303.449-.54.635-.235.187-.524.337-.868.45-.344.113-.735.17-1.174.17-.434 0-.811-.042-1.131-.123-.32-.083-.584-.192-.795-.329-.21-.138-.366-.295-.469-.474-.102-.179-.152-.366-.152-.56 0-.252.075-.465.229-.641.154-.175.366-.316.636-.422-.142-.08-.256-.186-.343-.315-.086-.129-.128-.299-.128-.507 0-.168.061-.345.184-.531.121-.187.311-.342.567-.467-.288-.153-.517-.359-.684-.617-.169-.256-.252-.557-.252-.901-.001-.281.056-.535.171-.762.115-.226.274-.419.48-.578.204-.158.446-.28.723-.365.278-.083.579-.125.904-.125.483 0 .908.094 1.278.285h1.655Z"/>
  <path fill="#231f20" fill-rule="nonzero" d="M93.913 36.042c-.369.018-.676.05-.921.096s-.44.105-.584.178c-.144.073-.246.156-.306.25-.06.093-.091.194-.091.304 0 .219.061.375.183.466.123.091.294.137.513.137.252 0 .47-.045.655-.135.184-.089.368-.228.551-.419v-.877Zm-3.08-2.505c.332-.299.7-.523 1.101-.671.402-.147.837-.221 1.305-.221.336-.001.636.053.902.163.264.11.489.263.673.458.185.196.327.429.425.699.099.271.148.567.148.888v3.552h-.691c-.142 0-.251-.021-.326-.06-.075-.04-.136-.125-.183-.252l-.12-.363c-.143.125-.281.234-.415.329-.133.096-.27.175-.413.239-.142.064-.295.112-.458.145-.162.033-.344.049-.545.049-.249 0-.476-.033-.68-.099-.204-.065-.381-.163-.529-.293-.147-.129-.262-.291-.342-.484-.081-.194-.121-.417-.121-.669 0-.208.053-.416.159-.625.106-.208.288-.398.546-.567.257-.17.6-.311 1.029-.422.43-.111.968-.175 1.615-.189v-.291c0-.354-.075-.614-.225-.782-.15-.165-.365-.249-.647-.249-.208 0-.381.025-.521.074-.138.05-.259.103-.364.16-.104.056-.202.109-.293.158-.091.05-.197.074-.318.074-.106 0-.194-.026-.265-.079-.071-.053-.132-.116-.179-.189l-.268-.482Z"/>
  <path fill="#231f20" fill-rule="nonzero" d="M98.731 35.368c.31 0 .54-.079.688-.236.148-.157.222-.36.222-.609 0-.259-.074-.463-.222-.611-.148-.148-.378-.222-.688-.222-.31 0-.539.074-.685.222-.146.148-.219.352-.219.611 0 .246.074.447.222.607.148.158.375.238.682.238m1.431 3.266c0-.098-.032-.179-.094-.241s-.145-.111-.249-.148c-.104-.036-.228-.063-.37-.079-.143-.017-.295-.029-.455-.039-.161-.009-.327-.017-.499-.024-.172-.007-.339-.021-.504-.038-.128.076-.233.166-.315.27-.083.104-.124.222-.124.354 0 .091.022.176.064.253.042.076.112.142.211.196.098.056.228.098.389.13.161.031.361.046.603.046.248 0 .458-.016.63-.049.171-.033.311-.08.417-.14.106-.061.182-.133.227-.217.045-.084.069-.175.069-.274m1.501-5.694v.553c0 .088-.024.157-.074.208-.049.052-.13.09-.244.116l-.46.093c.062.179.093.371.093.575 0 .282-.057.535-.172.759-.116.225-.274.417-.474.576-.202.159-.439.281-.713.367-.274.086-.57.129-.888.129-.201 0-.389-.017-.564-.05-.154.096-.231.2-.231.313 0 .106.052.183.157.23.104.048.241.081.41.101.171.021.364.034.581.038.218.006.439.018.664.036.225.019.446.051.663.097.218.046.411.12.581.225.17.104.307.241.411.413.105.172.156.392.156.663 0 .252-.062.497-.186.735-.124.237-.304.449-.54.635-.235.187-.525.337-.869.45-.344.113-.735.17-1.173.17-.435 0-.812-.042-1.131-.123-.321-.083-.585-.192-.796-.329-.21-.138-.365-.295-.468-.474-.102-.179-.153-.366-.153-.56 0-.252.076-.465.23-.641.153-.175.365-.316.636-.422-.143-.08-.257-.186-.343-.315-.086-.129-.128-.299-.128-.507 0-.168.06-.345.183-.531.122-.187.311-.342.567-.467-.289-.153-.517-.359-.685-.617-.168-.256-.252-.557-.252-.901 0-.281.057-.535.172-.762.116-.226.275-.419.48-.578.205-.158.446-.28.724-.365.277-.083.579-.125.904-.125.483 0 .908.094 1.277.285h1.655Z"/>
  <path fill="#231f20" fill-rule="nonzero" d="M105.988 34.913c0-.157-.021-.307-.063-.45-.042-.142-.108-.268-.2-.377-.091-.11-.206-.197-.345-.261-.139-.063-.306-.095-.499-.095-.362 0-.645.102-.849.306-.205.205-.339.497-.401.877h2.357Zm-2.378.899c.047.53.197.917.451 1.162.254.244.586.367.996.367.208 0 .388-.024.539-.074.152-.049.285-.104.401-.164.115-.061.219-.115.312-.165.093-.048.185-.074.277-.074.116 0 .208.044.274.132l.438.549c-.161.185-.338.34-.531.462-.194.122-.396.22-.604.291-.208.071-.418.12-.629.148-.213.027-.417.041-.615.041-.395 0-.763-.065-1.104-.195-.342-.13-.64-.321-.894-.575-.254-.254-.454-.57-.6-.946-.146-.376-.219-.813-.219-1.31 0-.384.063-.746.189-1.085.126-.34.308-.636.546-.888.237-.252.525-.452.866-.6.34-.148.723-.222 1.15-.222.362 0 .696.057 1.001.172.305.116.568.283.789.502.221.219.393.489.516.809.121.319.183.684.183 1.093 0 .114-.005.206-.017.279-.011.073-.029.132-.054.176-.026.044-.061.074-.104.09-.044.016-.101.025-.171.025h-3.386Z"/>
  <path fill="#231f20" fill-rule="nonzero" d="M108.334 38.404v-5.651h.931c.19 0 .317.087.379.262l.087.368c.099-.102.201-.197.305-.285.104-.087.216-.163.337-.228.121-.063.251-.113.392-.15.14-.036.293-.055.457-.055.348 0 .634.093.861.276.226.185.398.432.515.738.091-.179.204-.334.337-.463.134-.13.28-.235.438-.315.16-.08.327-.14.505-.178.177-.038.355-.058.535-.058.317 0 .598.048.843.142.246.096.451.236.617.42.166.185.293.41.381.677.087.267.131.57.131.91v3.59h-1.512v-3.59c0-.662-.283-.993-.85-.993-.128 0-.246.022-.353.064-.108.041-.203.105-.285.188-.083.085-.147.189-.192.313-.046.124-.069.267-.069.428v3.59h-1.512v-3.59c0-.358-.071-.613-.211-.765-.142-.152-.349-.228-.622-.228-.177 0-.341.042-.497.124-.155.083-.3.196-.436.342v4.117h-1.512Z"/>
  <path fill="#231f20" fill-rule="nonzero" d="M121.219 34.913c0-.157-.021-.307-.063-.45-.042-.142-.108-.268-.2-.377-.091-.11-.206-.197-.345-.261-.139-.063-.306-.095-.499-.095-.362 0-.645.102-.849.306-.205.205-.339.497-.401.877h2.357Zm-2.378.899c.047.53.197.917.451 1.162.254.244.586.367.996.367.208 0 .388-.024.539-.074.152-.049.285-.104.401-.164.115-.061.219-.115.312-.165.093-.048.185-.074.277-.074.116 0 .208.044.274.132l.438.549c-.161.185-.338.34-.531.462-.194.122-.396.22-.604.291-.208.071-.418.12-.629.148-.213.027-.417.041-.615.041-.395 0-.763-.065-1.104-.195-.342-.13-.64-.321-.894-.575-.254-.254-.454-.57-.6-.946-.146-.376-.219-.813-.219-1.31 0-.384.063-.746.189-1.085.126-.34.308-.636.546-.888.237-.252.525-.452.866-.6.34-.148.723-.222 1.15-.222.362 0 .696.057 1.001.172.305.116.568.283.789.502.221.219.393.489.516.809.121.319.183.684.183 1.093 0 .114-.005.206-.017.279-.011.073-.029.132-.054.176-.026.044-.061.074-.104.09-.044.016-.101.025-.171.025h-3.386Z"/>
  <path fill="#231f20" fill-rule="nonzero" d="M124.969 33.411c.113-.11.231-.21.353-.302.123-.091.252-.169.39-.235.137-.066.285-.117.443-.154.159-.036.332-.054.518-.054.308 0 .579.053.817.158.237.106.437.254.6.445.163.19.285.416.367.679.083.263.123.552.123.866v3.59h-1.507v-3.59c0-.314-.073-.558-.219-.731-.146-.174-.362-.261-.647-.261-.211 0-.411.045-.597.137-.187.091-.364.219-.532.383v4.062h-1.512v-5.651h.931c.19 0 .316.088.379.263l.093.395Z"/>
  <path fill="#231f20" fill-rule="nonzero" d="M131.71 38.492c-.256 0-.483-.038-.679-.113-.198-.075-.364-.181-.5-.32-.135-.139-.237-.307-.306-.504-.07-.198-.104-.421-.104-.669v-3.048h-.533c-.079 0-.148-.025-.205-.077-.056-.05-.085-.127-.085-.229v-.592l.905-.165.307-1.463c.04-.165.151-.246.334-.246h.789v1.72h1.458v1.052h-1.458v2.949c0 .158.038.281.113.373.075.091.181.137.32.137.073 0 .135-.008.187-.024.051-.017.094-.035.131-.056.036-.019.07-.038.102-.054.031-.017.063-.025.096-.025.044 0 .08.01.109.03.029.02.058.054.088.102l.455.723c-.208.164-.444.289-.708.372-.262.085-.535.127-.816.127"/>
  <path fill="#ffcb20" fill-rule="nonzero" d="M37.677 44.082c-3.958 8.445-10.673 10.566-14.323 11.079-1.37.193-2.773.227-4.054.096-2.499-.253-5.734-.983-8.584-4.411-2.778-3.522-2.822-6.84-2.55-9.338.229-2.093 2.012-12.686 14.752-15.654 1.509-.351 2.999-.63 4.428-.831 1.923-.27 3.791-.408 5.554-.408 5.135 0 7.766 1.115 8.177 1.623.393.484 1.845 6.657-3.4 17.844m4.425-18.672c-1.155-1.428-6.987-2.807-14.94-1.692-1.473.208-3.002.494-4.544.853C9.013 27.741 7.101 39.118 6.857 41.366c-.3 2.746-.248 6.4 2.835 10.309 3.166 3.807 6.727 4.615 9.475 4.893.554.055 1.131.084 1.716.084.877 0 1.771-.063 2.655-.186 3.914-.551 11.109-2.818 15.332-11.825 5.196-11.086 4.17-18.071 3.232-19.231"/>
  <path fill="#ed1c24" fill-rule="nonzero" d="M34.478 36.464c-1.846 12.947-12.241 15.65-14.306 16.06-.363.071-.701.128-1.035.175-3.136.443-5.831-.157-8.465-1.885-3.687-2.555-4.699-5.715-5.168-8.183-.394-2.069-1.789-12.719 9.529-19.284 5.959-3.456 10.538-4.649 13.33-5.041.818-.115 1.612-.176 2.297-.176 1.066 0 1.656.142 1.852.275.517.349 3.71 5.829 1.966 18.059m-1.228-19.15c-1.165-.788-4.174-.438-5.07-.313-2.909.409-7.666 1.645-13.807 5.207C2.283 29.221 3.786 40.657 4.21 42.878c.518 2.715 1.636 6.194 5.725 9.028 2.309 1.515 4.683 2.251 7.261 2.251.684 0 1.399-.052 2.125-.154.357-.05.729-.113 1.107-.187 2.218-.441 13.383-3.343 15.355-17.166 1.726-12.121-1.297-18.501-2.533-19.336"/>
  <path fill="#231f20" fill-rule="nonzero" d="M20.219 49.648c-1.615.866-3.052 1.366-4.52 1.572-1.631.232-3.289.089-5.065-.429-4.269-1.366-6.163-4.093-7.336-6.315-.982-1.863-5.428-11.638 3.477-21.226 6.562-7.065 12.258-9.504 14.588-9.832.163-.023.305-.034.424-.034.137 0 .217.015.259.028.595.182 5.252 4.49 7.16 16.695 2.021 12.923-7.132 18.545-8.987 19.541m10.288-19.745c-1.891-12.094-6.648-17.314-8.076-17.751-.327-.1-.722-.112-1.25-.038-2.505.351-8.559 2.905-15.371 10.239-9.508 10.236-4.731 20.736-3.677 22.737 1.289 2.444 3.375 5.444 8.116 6.96 1.367.399 2.653.593 3.93.593.568 0 1.14-.039 1.703-.118 1.627-.229 3.202-.774 4.958-1.716 1.993-1.069 11.825-7.098 9.667-20.906"/>
  <path fill="#231f20" fill-rule="nonzero" d="M60.374 45.665v5.651h-.932c-.193 0-.318-.088-.373-.263l-.098-.395c-.113.11-.23.21-.351.302-.12.091-.249.169-.387.235-.136.066-.284.117-.443.154-.159.036-.332.054-.518.054-.307 0-.581-.053-.819-.158-.24-.106-.44-.254-.601-.444-.16-.19-.283-.417-.367-.68-.084-.263-.126-.552-.126-.866v-3.59h1.512v3.59c0 .314.073.558.217.731.145.174.359.261.644.261.212 0 .411-.046.598-.14.186-.093.363-.22.531-.381v-4.061h1.513Z"/>
  <path fill="#231f20" fill-rule="nonzero" d="M63.082 46.322c.113-.109.231-.21.353-.301.123-.092.252-.17.39-.236.137-.066.285-.117.443-.153.16-.037.332-.055.518-.055.308 0 .579.053.818.159.237.106.436.254.599.444.163.19.285.416.368.679.082.263.123.552.123.866v3.59h-1.507v-3.59c0-.314-.074-.558-.22-.732-.146-.173-.362-.26-.647-.26-.211 0-.41.046-.597.137-.186.092-.364.219-.532.384v4.061h-1.512v-5.65h.931c.19 0 .316.087.379.262l.093.395Z"/>
  <path fill="#231f20" fill-rule="nonzero" d="M71.44 47.134c-.143-.164-.297-.28-.463-.345-.167-.066-.343-.099-.53-.099-.183 0-.348.035-.498.104-.15.069-.279.178-.386.326-.108.148-.192.337-.25.567-.059.23-.088.505-.088.823 0 .314.024.581.072.8.047.219.116.396.205.531.09.136.198.233.326.294.128.06.271.09.428.09.266 0 .49-.053.671-.159.181-.106.351-.256.513-.449v-2.483Zm1.512-3.991v8.173h-.931c-.194 0-.318-.088-.373-.263l-.126-.493c-.113.124-.233.237-.359.339-.126.102-.262.191-.408.266-.147.075-.304.133-.472.173-.168.04-.35.06-.548.06-.304 0-.581-.064-.833-.192s-.47-.315-.655-.562c-.185-.246-.328-.549-.43-.907-.102-.358-.154-.767-.154-1.227 0-.421.057-.812.173-1.174.115-.361.279-.674.491-.937.211-.263.467-.469.767-.619.299-.15.632-.225.997-.225.308 0 .566.046.776.137.21.092.401.216.573.373v-2.922h1.512Z"/>
  <path fill="#231f20" fill-rule="nonzero" d="M78.785 44.651v2.044h2.653v1.244h-2.653v2.089h3.409v1.288H77.13v-7.953h5.064v1.288h-3.409Z"/>
  <path fill="#231f20" fill-rule="nonzero" d="M84.769 46.218c.106-.095.217-.182.332-.26.115-.079.237-.146.368-.203.129-.057.268-.1.416-.132.148-.03.308-.046.479-.046.308 0 .579.053.818.159.237.106.437.254.599.444.163.19.285.417.368.679.082.264.123.552.123.866v3.591h-1.507v-3.591c0-.314-.074-.558-.22-.731-.146-.174-.361-.261-.646-.261-.212 0-.412.046-.598.138-.187.091-.364.218-.532.383v4.062h-1.512v-8.173h1.512v3.075Z"/>
  <path fill="#231f20" fill-rule="nonzero" d="M90.947 46.596c.179-.322.385-.576.619-.762.234-.186.508-.279.822-.279.256 0 .465.06.625.18l-.098 1.118c-.019.073-.047.124-.086.151-.038.028-.09.041-.156.041-.058 0-.143-.008-.252-.024-.11-.017-.212-.025-.307-.025-.138 0-.262.02-.37.06-.108.041-.203.097-.287.17-.085.073-.161.163-.228.269-.068.106-.131.227-.19.361v3.459h-1.512v-5.651h.894c.153 0 .259.027.318.082.058.055.1.15.125.286l.083.564Z"/>
  <path fill="#231f20" fill-rule="nonzero" d="M97.168 47.824c0-.157-.02-.307-.062-.45-.043-.142-.109-.268-.201-.378-.091-.109-.206-.196-.345-.26-.139-.064-.305-.096-.499-.096-.362 0-.645.102-.849.307-.205.205-.339.497-.4.877h2.356Zm-2.378.899c.047.53.198.917.452 1.162.254.244.585.367.995.367.208 0 .388-.025.54-.074.151-.049.285-.104.4-.164.115-.061.219-.116.312-.165.094-.049.185-.074.277-.074.116 0 .208.044.274.132l.438.548c-.161.186-.338.341-.531.463-.194.122-.395.219-.603.29-.208.072-.418.121-.63.148-.213.028-.417.042-.615.042-.394 0-.763-.065-1.104-.195-.342-.13-.64-.322-.894-.576-.254-.253-.453-.569-.599-.945-.147-.376-.22-.813-.22-1.31 0-.384.063-.746.19-1.085.125-.34.307-.636.545-.888.237-.252.526-.452.866-.6.34-.148.723-.222 1.151-.222.361 0 .695.057 1 .172.305.115.568.283.789.502.222.219.393.488.516.809.122.319.183.684.183 1.093 0 .113-.005.206-.016.279-.012.073-.03.132-.055.176-.026.044-.061.074-.104.09-.044.016-.101.025-.17.025H94.79Z"/>
  <path fill="#231f20" fill-rule="nonzero" d="M100.917 46.322c.113-.109.231-.21.353-.301.123-.092.252-.17.39-.236.137-.066.285-.117.443-.153.159-.037.332-.055.518-.055.308 0 .579.053.818.159.237.106.436.254.599.444.163.19.285.416.368.679.082.263.123.552.123.866v3.59h-1.507v-3.59c0-.314-.074-.558-.22-.732-.146-.173-.361-.26-.646-.26-.212 0-.412.046-.598.137-.187.092-.364.219-.532.384v4.061h-1.512v-5.65h.931c.191 0 .316.087.379.262l.093.395Z"/>
  <path fill="#231f20" fill-rule="nonzero" d="M108.739 48.953c-.371.018-.677.051-.922.096-.245.046-.44.105-.584.178-.145.073-.246.156-.306.25-.061.093-.092.194-.092.304 0 .219.063.374.184.466.123.091.293.137.513.137.252 0 .47-.045.655-.135.184-.089.368-.229.551-.419v-.877Zm-3.08-2.505c.332-.299.699-.523 1.101-.671.402-.148.836-.222 1.305-.222.335 0 .636.055.901.164.265.11.49.262.674.458.185.196.326.429.425.699.099.27.148.566.148.888v3.551h-.691c-.142 0-.251-.02-.326-.06-.075-.04-.136-.124-.184-.252l-.12-.362c-.142.125-.28.234-.414.329-.133.095-.271.175-.413.238-.143.065-.295.113-.458.146-.162.032-.344.049-.546.049-.248 0-.475-.033-.679-.099-.204-.065-.381-.163-.529-.293-.148-.13-.262-.291-.343-.485-.08-.193-.12-.416-.12-.668 0-.209.053-.417.159-.625.106-.208.288-.398.545-.568.258-.169.601-.31 1.03-.421.43-.112.968-.175 1.615-.19v-.29c0-.354-.075-.615-.225-.781-.15-.167-.366-.25-.647-.25-.208 0-.381.025-.521.074-.139.05-.259.103-.364.159-.104.057-.202.11-.294.159-.091.049-.196.074-.317.074-.106 0-.194-.026-.265-.079-.072-.053-.132-.116-.18-.189l-.267-.483Z"/>
  <path fill="#231f20" fill-rule="nonzero" d="M111.452 51.315v-5.651h.931c.191 0 .317.088.379.263l.088.367c.099-.102.2-.197.304-.285.104-.087.216-.163.337-.227.121-.064.251-.114.392-.151.14-.036.293-.054.458-.054.347 0 .633.092.86.276.227.185.399.431.516.737.091-.178.203-.333.337-.463.133-.13.279-.235.439-.315.158-.08.327-.14.504-.178.177-.038.355-.057.534-.057.318 0 .6.047.844.142.245.095.45.235.617.419.166.185.293.41.38.677.088.267.132.57.132.91v3.59h-1.513v-3.59c0-.661-.283-.992-.849-.992-.128 0-.245.021-.354.063-.108.042-.203.105-.285.189-.082.084-.146.188-.191.312-.046.125-.069.267-.069.428v3.59h-1.513v-3.59c0-.358-.07-.613-.211-.765-.14-.151-.348-.227-.622-.227-.176 0-.341.041-.497.123-.154.083-.3.196-.436.343v4.116h-1.512Z"/>
  <path fill="#231f20" fill-rule="nonzero" d="M122.627 51.403c-.256 0-.483-.037-.679-.112-.198-.075-.364-.182-.5-.321-.135-.139-.237-.307-.306-.504-.07-.197-.104-.42-.104-.669V46.75h-.533c-.079 0-.148-.026-.205-.077-.056-.051-.085-.128-.085-.23v-.592l.905-.165.307-1.463c.04-.165.151-.246.334-.246h.789v1.72h1.458v1.053h-1.458v2.948c0 .158.038.282.113.373.075.092.181.137.32.137.073 0 .135-.008.187-.024.051-.017.094-.035.131-.055.036-.02.07-.039.102-.055.031-.016.063-.025.096-.025.044 0 .08.011.109.03.029.02.058.054.088.102l.455.723c-.208.165-.444.289-.708.373-.262.084-.535.126-.816.126"/>
  <path fill="#231f20" fill-rule="nonzero" d="M58.734 7.044c.186 0 .352-.016.496-.048.144-.032.28-.075.408-.128v-.884h-.576c-.086 0-.152-.023-.2-.068-.048-.045-.072-.103-.072-.172V5h2.072v2.46c-.15.109-.305.203-.466.282-.162.079-.334.143-.516.194-.183.051-.378.088-.584.112-.207.024-.429.036-.666.036-.427 0-.822-.075-1.184-.226-.363-.151-.677-.359-.942-.624-.266-.265-.474-.58-.624-.944-.151-.364-.226-.759-.226-1.186 0-.435.072-.834.216-1.198.144-.364.35-.678.618-.942.268-.264.592-.469.972-.616.38-.147.804-.22 1.274-.22.242 0 .47.02.684.06.213.04.41.095.59.164s.344.152.494.248c.149.096.282.2.4.312l-.392.596c-.038.056-.082.1-.134.132-.052.032-.109.048-.17.048-.08 0-.163-.027-.248-.08-.107-.064-.208-.119-.302-.166-.095-.047-.192-.085-.29-.114-.099-.029-.203-.051-.312-.064-.11-.013-.232-.02-.368-.02-.254 0-.482.045-.684.134-.203.089-.376.215-.518.378-.143.163-.253.358-.33.586-.078.228-.116.482-.116.762 0 .309.042.584.128.824.085.24.203.443.354.608.15.165.329.291.536.378.206.087.432.13.678.13Z"/>
  <path fill="#231f20" fill-rule="nonzero" d="M65.59 2.192v1.04h-2.392v1.36h1.832v1h-1.832V6.98h2.392v1.04h-3.752V2.192h3.752Z"/>
  <path fill="#231f20" fill-rule="nonzero" d="M70.262 2.192v1.04H67.87v1.476h1.992v1.044H67.87V8.02h-1.36V2.192h3.752Z"/>
  <path fill="#231f20" fill-rule="nonzero" d="M76.822 5.104c0 .421-.073.813-.218 1.176-.146.363-.35.678-.614.946-.264.268-.582.478-.954.63-.372.152-.785.228-1.238.228-.454 0-.867-.076-1.24-.228-.374-.152-.693-.362-.958-.63-.266-.268-.471-.583-.616-.946-.146-.363-.218-.755-.218-1.176 0-.421.072-.813.218-1.176.145-.363.35-.677.616-.944.265-.267.584-.476.958-.628.373-.152.786-.228 1.24-.228.453 0 .866.077 1.238.23.372.153.69.363.954.63s.468.581.614.944c.145.363.218.753.218 1.172Zm-1.384 0c0-.288-.038-.547-.112-.778-.075-.231-.182-.426-.322-.586-.14-.16-.312-.283-.514-.368-.203-.085-.434-.128-.692-.128-.262 0-.494.043-.698.128-.204.085-.376.208-.516.368s-.248.355-.322.586c-.075.231-.112.49-.112.778 0 .291.037.551.112.782.074.231.182.426.322.586.14.16.312.282.516.366.204.084.436.126.698.126.258 0 .489-.042.692-.126.202-.084.374-.206.514-.366s.247-.355.322-.586c.074-.231.112-.491.112-.782ZM73.55 1.348c0 .085-.017.164-.05.236-.034.072-.08.135-.138.19-.059.055-.127.097-.204.128-.078.031-.16.046-.248.046-.08 0-.157-.015-.23-.046-.074-.031-.138-.073-.194-.128-.056-.055-.101-.118-.134-.19-.034-.072-.05-.151-.05-.236 0-.083.016-.161.05-.236.033-.075.078-.14.134-.196.056-.056.12-.1.194-.132.073-.032.15-.048.23-.048.088 0 .17.016.248.048.077.032.145.076.204.132.058.056.104.121.138.196.033.075.05.153.05.236Zm1.76 0c0 .085-.017.164-.05.236-.034.072-.078.135-.134.19-.056.055-.122.097-.198.128-.076.031-.157.046-.242.046-.086 0-.166-.015-.242-.046-.076-.031-.142-.073-.198-.128-.056-.055-.101-.118-.134-.19-.034-.072-.05-.151-.05-.236 0-.083.016-.161.05-.236.033-.075.078-.14.134-.196.056-.056.122-.1.198-.132.076-.032.156-.048.242-.048.085 0 .166.016.242.048.076.032.142.076.198.132.056.056.1.121.134.196.033.075.05.153.05.236Z"/>
  <path fill="#231f20" fill-rule="nonzero" d="M79.014 5.864V8.02h-1.352V2.192h1.896c.421 0 .78.043 1.078.13.297.087.54.207.728.362.188.155.324.337.41.548.085.211.128.44.128.688 0 .189-.026.368-.076.536-.051.168-.126.323-.226.466-.1.143-.223.27-.368.382-.146.112-.313.204-.502.276.09.045.175.101.254.168.078.067.147.148.206.244l1.24 2.028h-1.224c-.227 0-.39-.085-.488-.256l-.968-1.692c-.043-.075-.093-.128-.15-.16-.058-.032-.138-.048-.242-.048h-.344Zm0-.932h.544c.184 0 .34-.023.47-.07.129-.047.235-.111.318-.194.082-.083.142-.179.18-.29.037-.111.056-.23.056-.358 0-.256-.084-.456-.25-.6-.167-.144-.425-.216-.774-.216h-.544v1.728Z"/>
  <path fill="#231f20" fill-rule="nonzero" d="M88.286 5.104c0 .421-.073.81-.218 1.166-.146.356-.35.664-.614.924s-.582.463-.954.608c-.372.145-.785.218-1.238.218h-2.264V2.192h2.264c.453 0 .866.073 1.238.22.372.147.69.349.954.608s.468.566.614.922c.145.356.218.743.218 1.162Zm-1.384 0c0-.288-.038-.548-.112-.78-.075-.232-.182-.429-.322-.59-.14-.161-.312-.285-.514-.372-.203-.087-.434-.13-.692-.13h-.904V6.98h.904c.258 0 .489-.043.692-.13.202-.087.374-.211.514-.372s.247-.358.322-.59c.074-.232.112-.493.112-.784Z"/>
  <path fill="#231f20" fill-rule="nonzero" d="M92.918 2.192v1.04h-2.392v1.36h1.832v1h-1.832V6.98h2.392v1.04h-3.752V2.192h3.752Z"/>
  <path fill="#231f20" fill-rule="nonzero" d="M95.182 5.864V8.02H93.83V2.192h1.896c.421 0 .78.043 1.078.13.297.087.54.207.728.362.188.155.324.337.41.548.085.211.128.44.128.688 0 .189-.026.368-.076.536-.051.168-.126.323-.226.466-.1.143-.223.27-.368.382-.146.112-.313.204-.502.276.09.045.175.101.254.168.078.067.147.148.206.244l1.24 2.028h-1.224c-.227 0-.39-.085-.488-.256l-.968-1.692c-.043-.075-.093-.128-.15-.16-.058-.032-.138-.048-.242-.048h-.344Zm0-.932h.544c.184 0 .34-.023.47-.07.129-.047.235-.111.318-.194.082-.083.142-.179.18-.29.037-.111.056-.23.056-.358 0-.256-.084-.456-.25-.6-.167-.144-.425-.216-.774-.216h-.544v1.728Z"/>
  <path fill="#231f20" fill-rule="nonzero" d="M103.291 2.192v1.072h-1.64V8.02h-1.352V3.264h-1.64V2.192h4.632Z"/>
  <path fill="#231f20" fill-rule="nonzero" d="M110.85 5.104c0 .421-.073.81-.218 1.166-.146.356-.35.664-.614.924s-.582.463-.954.608c-.372.145-.785.218-1.238.218h-2.264V2.192h2.264c.453 0 .866.073 1.238.22.372.147.69.349.954.608s.468.566.614.922c.145.356.218.743.218 1.162Zm-1.384 0c0-.288-.038-.548-.112-.78-.075-.232-.182-.429-.322-.59-.14-.161-.312-.285-.514-.372-.203-.087-.434-.13-.692-.13h-.904V6.98h.904c.258 0 .489-.043.692-.13.202-.087.374-.211.514-.372s.247-.358.322-.59c.074-.232.112-.493.112-.784Z"/>
  <path fill="#231f20" fill-rule="nonzero" d="M114.17 6.952c.181 0 .343-.03.486-.09.142-.06.263-.146.362-.258.098-.112.174-.249.226-.41.052-.161.078-.345.078-.55V2.192h1.352v3.452c0 .357-.058.685-.174.984-.116.299-.282.556-.498.772-.216.216-.479.384-.788.504-.31.12-.658.18-1.044.18-.39 0-.739-.06-1.048-.18-.31-.12-.572-.288-.788-.504-.216-.216-.382-.473-.496-.772-.115-.299-.172-.627-.172-.984V2.192h1.352V5.64c0 .205.026.389.078.55.052.161.127.299.226.412.098.113.219.2.362.26.142.06.304.09.486.09Z"/>
  <path fill="#231f20" fill-rule="nonzero" d="M119.154 5.864V8.02h-1.352V2.192h1.896c.421 0 .78.043 1.078.13.297.087.54.207.728.362.188.155.324.337.41.548.085.211.128.44.128.688 0 .189-.026.368-.076.536-.051.168-.126.323-.226.466-.1.143-.223.27-.368.382-.146.112-.313.204-.502.276.09.045.175.101.254.168.078.067.147.148.206.244l1.24 2.028h-1.224c-.227 0-.39-.085-.488-.256l-.968-1.692c-.043-.075-.093-.128-.15-.16-.058-.032-.138-.048-.242-.048h-.344Zm0-.932h.544c.184 0 .34-.023.47-.07.129-.047.235-.111.318-.194.082-.083.142-.179.18-.29.037-.111.056-.23.056-.358 0-.256-.084-.456-.25-.6-.167-.144-.425-.216-.774-.216h-.544v1.728Z"/>
  <path fill="#231f20" fill-rule="nonzero" d="M126.954 6.512c.032 0 .064.006.096.018.032.012.062.033.092.062l.536.564c-.235.307-.529.538-.882.694-.354.156-.772.234-1.254.234-.443 0-.84-.075-1.19-.226-.351-.151-.648-.359-.892-.624s-.432-.58-.562-.944c-.131-.364-.196-.759-.196-1.186 0-.435.074-.834.224-1.198.149-.364.358-.678.626-.942.268-.264.588-.469.962-.616.373-.147.785-.22 1.236-.22.218 0 .424.019.618.058.193.039.374.092.542.16.168.068.322.149.464.244.141.095.266.199.376.314l-.456.612c-.03.037-.064.071-.104.102-.04.031-.096.046-.168.046-.048 0-.094-.011-.136-.032-.043-.021-.088-.047-.136-.078-.048-.031-.101-.064-.158-.1-.058-.036-.126-.069-.204-.1-.079-.031-.171-.057-.276-.078-.106-.021-.229-.032-.37-.032-.246 0-.47.043-.672.13-.203.087-.377.211-.522.372-.146.161-.259.357-.34.586-.082.229-.122.487-.122.772 0 .299.04.564.122.796.081.232.192.427.332.586.14.159.303.279.49.362.186.083.386.124.6.124.122 0 .234-.006.336-.018.101-.012.195-.033.282-.062.086-.029.169-.067.248-.114.078-.047.158-.105.238-.174.032-.027.066-.049.104-.066.037-.017.076-.026.116-.026Z"/>
  <path fill="#231f20" fill-rule="nonzero" d="M133.446 8.02h-1.36V5.556h-2.368V8.02h-1.36V2.192h1.36v2.436h2.368V2.192h1.36V8.02Z"/>
  <path fill="none" stroke="#231f20" d="M55.722 9.77h77.951"/>
</svg>
