<?xml version="1.0" encoding="UTF-8"?>
<svg id="svg833" xmlns="http://www.w3.org/2000/svg" viewBox="0 0 785.46 783.95">
  <defs>
    <style>
      .cls-1 {
        letter-spacing: .03em;
      }

      .cls-2 {
        letter-spacing: .03em;
      }

      .cls-3 {
        fill: #a3671b;
        font-size: 38px;
      }

      .cls-3, .cls-4 {
        font-family: Helvetica-Bold, Helvetica;
      }

      .cls-5 {
        letter-spacing: -.06em;
      }

      .cls-6 {
        stroke: #527374;
        stroke-miterlimit: 22.93;
        stroke-width: .38px;
      }

      .cls-6, .cls-7, .cls-8, .cls-9 {
        fill-rule: evenodd;
      }

      .cls-6, .cls-8 {
        fill: #527374;
      }

      .cls-10 {
        fill: #f59a28;
        stroke: #f59a28;
        stroke-width: 6.68px;
      }

      .cls-11 {
        letter-spacing: -.07em;
      }

      .cls-12 {
        letter-spacing: 0em;
      }

      .cls-7 {
        fill: #f2f2f2;
      }

      .cls-9 {
        fill: #ececec;
      }

      .cls-13, .cls-4 {
        isolation: isolate;
      }

      .cls-4 {
        fill: #f59a29;
        font-size: 83.13px;
      }
    </style>
  </defs>
  <path id="path849" class="cls-9" d="M104.51,518.24l-46.18-3.51-57.56-.59,33.53,42.14,42.38,69.06,40.48,22.24,45.54-8.19,22.14-31.02-23.4-63.79-56.93-26.34Z"/>
  <path id="path851" class="cls-7" d="M273.4,602.52c21.51-1.76,43.01-3.51,64.52-5.27,14.21-.09,18.36-.7,30.8-5.49,1.48-.57,6.15-.68,4.07,5.93-9.43,30.02-12.7,31.62-33.25,56.15l-49.7,27.11c-15.6-8-31.21-16-46.81-24-2.95-10.93-5.9-21.85-8.86-32.78,13.07-7.22,26.15-14.44,39.22-21.66"/>
  <path id="path853" class="cls-7" d="M358.2,631c-1.65,2.35-3.5,4.72-5.65,7.35,.26-2.92-1.79-5.01-5.47-3.42-3.52,1.52-3.49,2.6-5.7,4.91-1.21,1.27-4.56,2.79-6.36,4.31-2.28,1.93-3.28,3.18-5.7,4.9-1.69,1.2-4.22,3.62-5.34,5.27-1.98,2.92-2.49,2.94-6.1,4.52-6.39,2.81-10.17,7.32-14.35,7.32-4.9,0-6.55-1.34-10.84,1.43-3.47,2.24-5.44-.57-10.85-1.23-2.87-.35-3.31,.25-6.06-.79-2.69-1.02-7.52-2.91-9.66-4.26-1.41-.89-2.58-1.91-4.69-2.44-2.18-.55-3.44-.87-4.16-2.59-2.18-5.2,4.45-4.95,7.11-6.19,2.02-.93,2.65-1.73,4.38-2.74,1.84-1.08,2.79-1.09,4.46-2.28,4.08-2.9,8.94-5.42,13.5-7.49,2.66-1.21,8.94-3,12.79-5.75,18.18-.23,37.28-.49,58.67-.82Zm-90.92,1.21c-2.1,.57-4.22,1.1-6.22,1.97-1.77,.77-2.42,1.47-4.64,2.13-2.37,.7-2.88,1.04-4.94,2.2-4.27,2.41-8.1-1.47-8.1-5.01,0-.32,.04-.65,.13-1,7.99-.1,15.87-.19,23.76-.29"/>
  <path id="path855" class="cls-9" d="M142.54,637.62c4.71-1.6,5.76-2.44,9.55-3.97,.29-.12,.59-.23,.89-.34-17.12-.36-35.39-1.13-53.47-2.08l3.98,2.23c1.57,.8,2.41,1.82,3.55,2.75,2.87,2.33,7.48,.23,11.45,1.08,3.08,.66,6.83,3,9.81,3,5.86,0,9.1-.92,14.24-2.66"/>
  <path id="path857" class="cls-9" d="M295.31,350.98l9.97-10.46c19.24-20.06,26.62-27.47,36.55-52.92,3.1-8.93,6.02-3.1,8.45,1.77,9.58,19.17,12.97,37.91,13.31,55.71l2.37,25.09-2.89,82.62-33.62,83.59-66.44,27.94-65.39-23.33-15.23-65.37c-.4-2.62-.26-4.4-.26-7.05l50.16-65.12,63.03-52.49Z"/>
  <path id="path861" class="cls-6" d="M345.2,284.41c-4.43,63.13-3.8,60.09-30.93,104.49l-3.49,3.23c27.14-44.4,29.99-44.6,34.43-107.73Z"/>
  <path id="path863" class="cls-8" d="M-1.39,512.29c31.98,11.12,65.8,25.89,102.89,48.04l-.8-1.4c-37.09-22.16-70.11-35.52-102.09-46.64"/>
  <path id="path865" class="cls-6" d="M371.99,592.4c-30.17,25.28-41.16,26.24-70.56,34.24l-2.07-.24c29.4-8,42.45-8.73,72.63-34Z"/>
  <path id="path859" class="cls-8" d="M329.51,308.29c-3.89,1.27-5.2,3.85-6.6,5.64-.73,.93-1.24,1.28-2.12,2.2-3.34,3.5-2.47,16.32,7.75,6.41,1.05-1.01,5.63-9.22,5.74-10.69,.22-2.9-1.89-4.5-4.77-3.56ZM-1.39,416.19v3.8c.18-1.22,.18-2.49,0-3.8Zm554.58,4.8c-3.5-3.92-5.91-2.36-11.67-2.67-4.56-.25-6.33-2.86-10.35-3.74-3.47-.76-9.96-.65-13.72-.88-6.57-.39-21.86-.87-27.98-.09-2.58,.33-3.41,.12-6.06,.96-1.67,.53-3.18,1.41-5.14,2.01-4.52,1.38-7.11,.95-10.56,3.81-7.38,6.12-3.66,18.9,18.1,16.03,11.32-1.5,17.31-.4,27.5-1.4,4.19-.42,8.37-1.71,12.36-1.96,4.76-.3,8.28-1.42,12.28-1.95,4.94-.66,8.65,.32,12.8-1.77,3.04-1.53,5.56-4.87,2.44-8.35Zm-9.65-49.53c-3.14-10.76-4.53-8.4-8.56-15.46-1.63-2.85-3.26-4.3-5.08-7.35l-4.82-7.25c-.89-1.34-1.73-1.72-2.66-3.18-.76-1.2-1.61-2.8-2.31-3.91-.99-1.55-1.62-1.86-2.61-3.24-.95-1.32-1.53-2.61-2.42-3.78-1.69-2.24-3.38-5.42-5.1-7.35-1.39-1.58-1.23-1.61-2.33-3.5-.78-1.35-1.75-2.38-2.71-3.52-1.93-2.29-4.27-7.12-7.91-10.04l-8.42-10.31c-3.58-6.86-3.99-5.67-8.24-10.1l-3.03-3.23c-1.64-1.56-4.13-4.78-8.25-3.91-2.3,.49-5.46,4-6.37,6.22-1.34,3.3,1.35,6.29,2.67,8.76,2.09,3.93,2.42,4.56,5.44,6.66,6.32,4.38,11.33,15.27,15.93,20.7l12.13,12.15c2.24,2.17,3.33,4.41,5.35,7.11,.76,1.01,1.49,2.54,2.21,3.61,.91,1.32,1.78,2.34,2.74,3.51,1.51,1.82,4.3,4.02,5.77,6.35l4.78,7.26c3.98,8.05,3.75,6.33,7.73,10.58l8.47,10.26c1.77,2.11,2.57,5.93,5.73,6.27,2.45,.26,6.68-2.96,6.68-5.42,0-4.43-3.53-3.52-4.81-7.89Zm-90.17-129.36c0-13.46,1.47-22.09-1.07-35.43-.46-2.45-1.64-3.31-2.27-5.46-1.21-4.13-1.41-63.12-1.47-68.48-.08-6.4-2.51-14.1-9.9-13.79-2.99,.13-4.61-.6-8.38-.6-5.23,0-10.23,.69-15.06,.67-2.62-.01-5.43-.27-7.19,1.07-1.11,.86-2.88,2.73-2.88,4.75,0,4.9,12.25,3.3,16.9,3.57,5.88,.33,11.55,2.89,11.55,8.87l-.24,32.81c0,21.29,1.14,42.62,1.2,63.72,.02,9.97,2.17,19.36,7.91,25.29,3.53,3.65,8.73,1.34,10.56-2.72,2.53-5.65,.34-8.44,.34-14.27Zm-55.89-92.93c-.85-3.41-2.47-12.33-6.94-11.03-4.71,1.38-6.74,15.69-6.85,20.62-.08,3.86,.5,5.04-1.35,7.66-2.93,.15-4.26-1.7-5.73-3.24l-6.37-6.94c-.8-.81-1.43-1.25-2.26-2.05l-4.35-4.65c-3.08-2.83-17.22-16.72-19.77-19.79-3.13-3.78-7.54-7.39-10.79-11.13-3.08-3.55-7.72-7.26-11.03-10.92-4.9-5.4-9.96-10.87-15.43-15.88l-10.84-11.09c-1.01-1-1.22-1.55-2.17-2.51l-9.08-8.58c-1.67-1.72-2.42-2.88-4.28-4.33l-7.22-6.14c-2.62-2.01-4.48-4.31-6.93-6.41l-14.87-11.49c-8.45-6.41-18.05-10.33-28.97-6.75-4.65,1.53-13.09,6.92-16.49,10.02-1.61,1.47-3.3,2.4-4.59,4.05-1.5,1.93-9.7,8.29-12.36,9.68-7.81,4.11-5.53,4.6-9.56,8.12-.96,.84-1.48,.95-2.51,1.81-6.75,5.59-10.84,11.7-17.16,18.08l-12.63,13.58c-1.86,2.4-6.1,6.02-8.6,8.63-1.42,1.49-3.08,2.64-4.72,4.29-4.78,4.83-19.11,17.13-22.52,21.4-2.53,3.14-6.09,5.7-8.43,8.78l-8.15,9.44c-1.62,1.56-2.98,2.67-4.57,4.46l-8.36,9.22c-1.29,1.32-2.89,2.94-4.09,4.52-1.3,1.73-2.78,2.85-4.31,4.31-1.62,1.53-2.41,2.89-3.89,4.68-1.58,1.92-2.98,2.56-4.44,4.57-3.34,4.61-12.72,12.81-16.97,18.24-1.28,1.64-2.62,3.25-4.03,4.56l-12.8,13.42c-6.89,7.81-6.36,8.25-11.36,14.75-1.38,1.79-2.92,3.28-4.17,4.83-2.4,2.98-5.13,7.19-7.63,9.52-2.79,2.59-3.51,3.19-6.01,5.96-.47,.52-.88,1.43-1.25,2-.42,.65-.64,1.4-.64,2.17v22.86H0c1.39-1.56,2.01-1.62,3.3-3.32,1.56-2.06,2.75-2.02,4.15-4.08,1.09-1.6,2.58-2.62,3.99-3.84,.81-.7,.97-1.2,1.86-2.06,2.22-2.18,4.84-3.35,5.85-6.67,1.13-3.72,3.68-4.27,7.85-8.18,2.34-2.19,1.69-2.53,2.58-5.52,.93-3.1,5.43-6.87,7.38-8.64,1.9-1.72,4.81-3.34,6.45-5.34,1.86-2.26,3.98-3.87,5.87-6.25,1.29-1.62,2.34-2.71,3.69-4.52,1.73-2.3,5.57-5.96,7.85-8.19,3.68-3.6,8.21-8.53,12.32-11.59,3.27-2.45,13.38-12.79,16.46-16.08,1.56-1.68,2.81-2.36,4.5-3.76,1.79-1.5,3.11-1.86,4.71-3.18,6.51-5.4,10.28-11.37,16.36-15.78l24.83-23.41,14.56-10.27c3.66-2.4,5.48-4.53,8.38-7.72,1.54-1.69,1.76-2.37,4.14-3.71,2.39-1.35,3.32-1.22,5.43-2.9,1.41-1.13,2.91-1.95,4.53-3.34,1.96-1.68,2.46-2.87,3.79-4.41,2.19-2.52,7.73-3.21,11.94-8.2,2.63-3.12,4.04-3.08,7.29-4.93,1.62-.93,3.15-2.02,4.45-3.42,.49-.53,.43-.57,.93-1.03,.34-.33,.71-.58,1.1-.86,2.47-1.79,5.68-2.63,7.85-4.43,1.48-1.22,2.65-2.65,4.25-3.98,12.42-10.3,13.88-5.35,29.58,3.41,2.29,1.28,2.49,2.3,5.33,3.75,2.91,1.48,3.39,1.96,5.42,3.64,3.28,2.74,7.25,4.88,10.28,7.83,4.75,4.62,9.85,7.92,15.47,11.7l7.61,5.79c1.07,.84,2.01,1.18,2.89,1.86,1.91,1.49,3.35,2.8,4.83,4.2,1.76,1.66,3.38,2.24,5.14,3.92,.84,.79,1.11,1.37,2.03,2.27,.88,.87,1.57,1.41,2.45,2.25,1.07,1.01,1.19,1.49,2.2,2.5,2.38,2.39,5.12,3.76,7.69,6.07,.8,.73,1.25,1.2,2.3,2.02l19.88,16.31c3.35,2.89,7.17,5.12,9.95,8.51,2.02,2.46,4.71,4.49,7.07,6.65,3.15,2.89,8.18,8.06,10.87,11.45,1.37,1.73,3.08,2.73,4.46,4.52l10.12,12.53c4.23,4.72,8.36,3.91,12.38-.65,1.88-2.13,2.13-4.75,2.71-7.71,1.39-7.2,.38-13.27,.79-20.7l1.28-11.68c.27-3.05-3.11-11.03-3.89-14.13Zm-27.5,225.64c-.5-6.02-1.38-12.29-2.22-18.34-.71-5.06,.41-14.41-6.35-14.41-5.04,0-4.95,3.93-4.95,7.5,0,5.98,2.51,10.88,2.65,17.74,.04,2.39,.44,3.5,.83,5.85,1.07,6.44,.86,22.6,.86,29.95,0,4.89-1.35,30.89-2.42,35.69-1.89,8.42-.74,12.4-4.46,26-1.67,6.09-2.13,12.47-4.89,18.11-1.97,4.03-2.2,7.09-4.53,10.9-1.03,1.69-1.69,3.32-2.55,5.18-3.14,6.74-7.91,13.14-12.41,19.05-1.27,1.67-2.09,2.75-3.64,4.18l-12.01,11.51c-3.72,2.93-7.77,5.63-12.33,7.82-1.2,.57-1.57,.97-2.5,1.47-2.76,1.47-8.57,2.73-11.97,3.97-4.96,1.82-8.39,1.96-13.79,2.26-2.57,.15-5.33,.03-7.89,.36-3.38,.44-5.51,1.46-9.14,1.46-2.67,0-5.51-.92-8.16-.89-3.33,.04-4.73-.11-8.15-.36-18.18-1.38-7.63-14.35-5.83-20.5,1.37-4.65,3.45-8.27,4.32-12.93,.46-2.42,.86-4.95,1.43-7l5.13-12.62c2.11-3.29,5.41-6.99,6.84-10.63,1.7-4.3,3.2-8.17,5.53-12.24,1.24-2.17,2.54-3.04,3.75-5.2,1.25-2.22,2.09-3.31,3.44-5.11,1.42-1.9,1.4-4.25,2.18-6.66,1.19-3.66,5.24-8.07,7.67-10.25,1.31-1.17,1.21-1.2,2.09-2.2l10.67-11.63c1.5-1.74,2.6-3.35,4.13-4.85,4-3.94,20.34-25.2,23.27-29.74,2.48-3.83,6.02-7.37,3.75-11.84-.81-1.61-2.89-3.85-5.68-2.85-1.45,.52-3.21,3.87-4.19,4.87-2.24,2.29-2.46,2.53-4.14,4.82-1.37,1.87-2.16,3.4-3.54,5.43-3.58,5.22-7.7,9.92-11.56,14.94l-23.08,25.77c-.77,.91-1.23,1.38-2.03,2.25-2.16,2.34-3.59,5.14-5.69,7.56-.72,.83-1.61,1.79-2.2,2.5l-11.51,14.99c-1.73,1.86-2.17,3.2-3.84,5.12-1.39,1.59-2.6,2.97-3.51,5.45l-11.62,23.54c-1.14,1.93-1.54,3.94-2.54,5.93-4.11,8.12-3.01,7.76-5.14,12.6-1.16,2.64-1.83,3.23-2.48,6.37-.69,3.38-.25,3.8-2.56,5.94-1.57,1.45-3.41,3.39-6.45,1.91-1.56-.76-3.8-2.94-4.59-4.42-1.25-2.33-2.27-3.29-3.38-5.55-7.66-15.5-6.32-29.97-4.76-46.19,.32-3.35,3.72-16.55,5.32-20.41,1.12-2.69,7.55-15.1,9.12-17.2l7.7-9.84c1.3-1.54,2.51-3.19,3.97-4.63,1.58-1.56,2.93-2.91,4.59-4.43,1.6-1.48,2.87-2.67,4.48-4.15,3.18-2.94,6.71-5.05,9.46-8.22,2.08-2.39,4.74-10.09,12.15-14.4,2.14-1.24,3.11-2.4,5.14-3.53l16.61-10.27c1.89-1.3,3.36-2.34,5.09-3.6,6.89-5.01,28.89-24.57,32.46-29.54,3.06-4.26-1.09-9.55-5.86-8.83-2.41,.36-8.43,5.04-10.55,6.85l-9.92,7.78c-1.71,1.41-3.06,2.55-4.68,3.97-1.55,1.35-3.6,2.36-5.25,3.82-2.35,2.07-4.22,4.27-6.78,6.18-1.08,.8-1.6,.97-2.71,2.01l-4.69,3.95c-9.5,10.79-18.21,8.97-23.08,12.58-4.71,3.48-.87,3.9-8.44,9.18-2.78,1.93-5.27,2.79-8.2,5.23l-19.05,20.45c-1.46,1.85-3,2.65-4.5,4.52-2.61,3.25-5.6,6.16-7.91,9.64-.58,.88-1.12,1.9-1.62,2.64-2.51,3.75-3.15,5.83-4.8,8.4-2.87,4.5-6.32,12.52-8,17.83-2.95,9.35-5.22,7.06-5.22,20.81,0,8.82,.17,17.61,1.11,26.4,.48,4.44-.12,1.76,1.1,7.37,.85,3.92,1.37,4.03,2.37,7.23,.97,3.07,.33,4.11,2.14,7.05,.65,1.07,1.27,1.83,1.73,2.93,.59,1.42,.55,2.38,1.23,3.77,1.16,2.36,2.64,3.45,3.66,5.67,1.45,3.15,2.03,3.51,3.9,5.81,2.81,3.44,6.48,5.9,10.82,8.46,11.36,6.71,9.51,12.79,6.27,26.11-2.3,9.43-.49,29.97-5.92,31.88-2.39-2.28-2.14-6.16-2.41-9.71-.25-3.15-1.2-7.07-1.7-10.5-.84-5.71-3.21-14.34-4.97-19.9-.63-2.01-1.22-2.49-2.04-4.13-.66-1.3-.74-3.21-1.31-4.85l-6.14-12.39c-.94-1.3-1.69-2.27-2.6-3.64l-5.37-7.48c-2.63-3.53-8.75-10.17-12.5-12.56-1.29-.82-2.73-1.17-4.23-2.13-3.9-2.52-8.41-5.33-13.05-6.37-10.45-2.35-6.14-5.63-20.22-5.81-1.53-.02-4.45-.37-5.83-.66-2.14-.46-2.67-1.23-4.42-1.93-3.5-1.41-7.93-.32-12.15-.32l-33.41-.67c-2.7,0-5.22,.65-8.15,.67-2.78,.03-5.85-.38-7.84,.9-4.77,3.06,2.77,7.78,7.02,7.35,11.25-1.06,12.58,2.26,25.68,2.23,10.78-.02,28.12,1.81,37.84,4.9,5.99,1.91,16.84,6.46,21.31,10.08,4.48,3.63,5.24,2.88,11.07,9.72,1.77,2.07,2.89,3.53,4.6,5.92,5.53,7.71,3.35,5.35,7.54,13.02,1.05,1.91,1.52,5.22,2.49,7.49,1.76,4.16,1.65,3.46,1.65,8.01,0,2.28,3.79,10.3-2.99,11.02-3.02,.32-7.71-5.4-9.75-7.24-4.48-4.07-18.74-13.72-24.45-17.36-1.9-1.21-3.51-1.88-5.26-3.05-3.39-2.25-7.05-4.5-10.82-6.2-1.9-.85-4.2-1.65-5.71-2.64l-5.61-3.09c-5.99-3.63-11.07-2.17-9.19,2.81,1.54,4.04,5.19,2.58,9.65,6.93,1.46,1.42,3.27,2.02,5.12,3.19,1.93,1.21,3.7,2.21,5.43,3.27,8.22,5.02,21.39,15.84,27.66,22.68,2.96,3.23,5.35,5.15,8.52,8.32,1.62,1.61,2.8,2.13,4.77,3.5,1.63,1.13,3.12,2.66,4.61,4.04,2.76,2.55,6.33,5.2,6.33,10.77,0,3.93-2.31,6.2-5.35,7.92-1.71,.97-2.2,1.95-3.91,2.78-1.55,.76-3.28,1.24-4.9,1.89-3.79,1.54-4.84,2.38-9.55,3.97-5.14,1.75-8.38,2.67-14.24,2.67-2.98,0-6.73-2.35-9.81-3-3.97-.85-8.59,1.25-11.45-1.08-1.14-.93-1.98-1.94-3.55-2.75l-12.68-7.12c-6.97-4.66-3.15-5.06-13.05-12.81l-4.91-4.5c-.7-.79-1.02-1.01-1.65-1.88-2.36-3.25-1.89-3.71-5.32-7.52-1.13-1.25-2.29-2.04-3.23-3.03-9.98-10.51-15.2-23.37-21.95-35.89-2.54-4.71-5.96-13.51-8.26-17.25-.83-1.35-1.61-2.4-2.44-3.75-2.6-4.24-6.46-2.49-6.46,2.55,0,3.06,1.92,6.72,2.78,9.91,1.11,4.11,1.7,5.88,3.56,9.51,4.1,8,14.05,25.56,19.2,33.14,.88,1.3,1.62,2.86,2.38,4.22,.98,1.74,1.76,2.53,2.68,3.92,2.67,4.05,13.7,20.08,16.41,22.89,2.53,2.63,5.22,3.3,7.82,5.59,5.12,4.52,7.74,8.6,14.92,11.48l8.99,4.49c6.06,2.85,12.54,7.15,20.72,7.15,2.34,0,5.21-.71,7.64-.6,2.52,.11,5.59,.83,8.26,.83,7.77,0,8.98,.85,15.84-2.48,2.41-1.17,4.75-1.86,7.13-3.2,4.35-2.44,8.98-5.12,13.76-6.89,2.49-.92,4.56-2.91,6.95-1.64,2.04,1.09,4.1,2.76,5.05,5.15,1.11,2.78,2.13,4.02,3.53,6.55,2.72,4.94,5.65,18.43,8.05,21.58,1.86,2.45,2.44,3.5,4.63,5.51,3.94,3.62,8.53,7.01,14.05,3.48,4.4-2.82,8.78-4.51,12.55-8.01,8.27-7.67,10.81-1.48,16.64,1.48,3.87,1.97,3.75,2.53,8.98,4.88,3.91,1.75,6.17,2.46,10.7,3.27,14.99,2.67,11.95,1.69,26.65,0,5.71-.65,7.01-1.77,11.69-3.51,1.87-.69,3.53-1.07,5.58-2.01l9.79-5.26c7.53-4.55,10.76-6.87,16.88-13.05,4.39-4.44,9.16-13.84,12.5-17.1,4.73-4.62,2.97-11.07-2.77-8.6-3.53,1.52-3.49,2.6-5.7,4.91-1.22,1.28-4.56,2.79-6.36,4.31-2.28,1.93-3.28,3.19-5.7,4.9-1.69,1.2-4.21,3.61-5.33,5.26-1.99,2.92-2.5,2.94-6.1,4.52-6.39,2.81-10.17,7.32-14.35,7.32-4.9,0-6.55-1.34-10.84,1.43-3.47,2.25-5.43-.56-10.84-1.22-2.87-.35-3.31,.24-6.06-.8-2.69-1.02-7.52-2.9-9.66-4.26-1.4-.89-2.57-1.91-4.68-2.44-2.18-.55-3.44-.87-4.16-2.59-2.18-5.2,4.45-4.95,7.11-6.19,2.01-.93,2.65-1.73,4.38-2.74,1.84-1.08,2.79-1.09,4.46-2.28,4.08-2.9,8.94-5.42,13.5-7.49,4.18-1.91,17.3-5.23,15.85-11.48-1.05-4.55-5.79-2.35-9.16-1.58-4.33,1-6.6,2.27-10.56,3.44-4.33,1.27-6.98,1.08-11.2,2.84-3.38,1.4-7.19,1.9-10.61,3.39-1.77,.77-2.42,1.48-4.63,2.13-2.37,.69-2.88,1.03-4.94,2.2-4.27,2.41-8.1-1.47-8.1-5.01,0-4.27,7.89-11.5,11.83-14.17,1.71-1.16,10.12-4.16,12.81-5.13l14.9-3.53c6.69-1.61,17.81-2.59,24.68-2.94,5.63-.29,11.93-.31,17.78-.78,5.92-.47,10.21-.88,15.26-2.81,7.42-2.84,3.09-7.45-3.28-6.81-2.88,.29-4.84,.93-8.18,.65-7.64-.64-36.63-.11-43.7,.74-4.12,.49-13.3,1.05-16.7,1.89-2.27,.56-4.41,1.5-6.69,2.06-2.7,.67-5.12,.75-7.61,1.65-2.29,.83-4.44,1.82-6.64,2.55-2.52,.85-4.17,1.26-6.53,2.63-1.02,.59-1.47,1.03-2.62,1.7-3.81,2.22-4.48,3.68-7.42,5.97-2.34,1.82-2.34,2.66-3.49,5.47-5.5,13.45,1.58,22.45-.76,26.04-2.65,4.06-7.99,1.64-7.99-3.12l1.45-41.1c0-6.71,.04-12.3,.52-19.11,.32-4.46,.67-4.54,3.4-6.96,5.28-4.69,10.54-3.05,17.17-2.79,9.08,.35,18.28-.56,27.31-1.16,7.22-.48,15.18-2.54,22.11-4.57l12.48-5.04c2.77-1.7,6.27-2.67,8.85-4.64,1.04-.79,1.27-1.18,2.52-1.81,4.88-2.46,8.52-5.84,12.29-9.37,.84-.79,1.49-1.31,2.35-1.97,3.36-2.59,5.33-6.1,8.16-9.05l7.36-10.15c1.98-3.42,4.03-7.59,6.32-10.74,1.07-1.46,1.51-4.03,2.5-5.98,1.08-2.12,1.93-3.37,2.73-5.76,1.48-4.42,3.45-8.13,4.54-12.38,.63-2.48,1.02-4.33,1.83-6.66,.78-2.23,1.64-4.14,2.25-6.55,1.59-6.34,4.24-22.58,4.98-28.5,3.09-24.93,1.87-51.65-.19-76.46Z"/>
  <g id="text891" class="cls-13" transform="scale(1.0107717,0.98934308)">
    <text class="cls-4" transform="translate(435.39 415.55) scale(1.02 1)"><tspan x="0" y="0">HAUS</tspan></text>
    <text class="cls-4" transform="translate(496.72 496.28) scale(1.02 1)"><tspan x="0" y="0">DER</tspan></text>
    <text class="cls-4" transform="translate(430.7 577.01) scale(1.02 1)"><tspan x="0" y="0">NACH</tspan></text>
    <text class="cls-4" transform="translate(366.22 657.75) scale(1.02 1)"><tspan x="0" y="0">HA</tspan><tspan class="cls-11" x="120.07" y="0">L</tspan><tspan class="cls-12" x="164.71" y="0">TIG</tspan></text>
    <text class="cls-4" transform="translate(482.58 738.48) scale(1.02 1)"><tspan x="0" y="0">KEIT</tspan></text>
  </g>
  <path id="path913" class="cls-10" d="M453.92,735.19H4.97"/>
  <text class="cls-3" transform="translate(722.26 741.91) rotate(-89.58)"><tspan class="cls-2"><tspan x="0" y="0">ULM, NEU-ULM UND</tspan></tspan><tspan class="cls-1" x="76.41" y="36">REGION e.</tspan><tspan class="cls-5" x="279.17" y="36">V</tspan><tspan class="cls-1" x="302.2" y="36">.</tspan></text>
</svg>