<?xml version="1.0" encoding="UTF-8" standalone="no"?>
<!-- Created with Inkscape (http://www.inkscape.org/) -->

<svg
   xmlns:dc="http://purl.org/dc/elements/1.1/"
   xmlns:cc="http://creativecommons.org/ns#"
   xmlns:rdf="http://www.w3.org/1999/02/22-rdf-syntax-ns#"
   xmlns:svg="http://www.w3.org/2000/svg"
   xmlns="http://www.w3.org/2000/svg"
   xmlns:sodipodi="http://sodipodi.sourceforge.net/DTD/sodipodi-0.dtd"
   xmlns:inkscape="http://www.inkscape.org/namespaces/inkscape"
   width="512"
   height="512"
   id="svg3085"
   version="1.1"
   inkscape:version="0.48.4 r9939"
   sodipodi:docname="Neues Dokument 4">
  <defs
     id="defs3087" />
  <sodipodi:namedview
     id="base"
     pagecolor="#ffffff"
     bordercolor="#666666"
     borderopacity="1.0"
     inkscape:pageopacity="0.0"
     inkscape:pageshadow="2"
     inkscape:zoom="0.35"
     inkscape:cx="350"
     inkscape:cy="47.860446"
     inkscape:document-units="px"
     inkscape:current-layer="layer1"
     showgrid="false"
     inkscape:window-width="523"
     inkscape:window-height="552"
     inkscape:window-x="420"
     inkscape:window-y="167"
     inkscape:window-maximized="0" />
  <metadata
     id="metadata3090">
    <rdf:RDF>
      <cc:Work
         rdf:about="">
        <dc:format>image/svg+xml</dc:format>
        <dc:type
           rdf:resource="http://purl.org/dc/dcmitype/StillImage" />
        <dc:title></dc:title>
      </cc:Work>
    </rdf:RDF>
  </metadata>
  <g
     inkscape:label="Ebene 1"
     inkscape:groupmode="layer"
     id="layer1"
     transform="translate(0,-540.36218)">
    <g
       id="g3063"
       transform="matrix(8.6832494,0,0,-8.6832494,253.08068,735.13979)">
      <path
         inkscape:connector-curvature="0"
         d="m 0,0 0,0.002 -4.249,0 0,-0.002 0,-4.25 L 0,-4.25 0,0 z"
         style="fill:#231f20;fill-opacity:1;fill-rule:nonzero;stroke:none"
         id="path3065" />
    </g>
    <g
       id="g3067"
       transform="matrix(8.6832494,0,0,-8.6832494,105.50364,993.44124)">
      <path
         inkscape:connector-curvature="0"
         d="m 0,0 0,4.25 0,4.248 0,0.002 0,4.248 0,4.249 0,4.25 0,4.25 0,4.252 4.249,0 0,4.25 4.249,0 0,4.25 4.249,0 0,4.249 4.249,0 0,-4.249 4.249,0 0,-4.25 4.249,0 0,-4.25 4.249,0 0,-4.25 0,-4.25 0,-0.002 0,-4.248 0,-0.002 0,-4.247 0,-0.002 0,-4.25 -4.249,0 0,-4.246 4.249,0 0,-4.252 0,-4.25 -4.249,0 -4.249,0 0,4.248 0,0.002 0,4.25 0,4.248 -4.249,0 -4.249,0 -4.249,0 -4.249,0 0,-4.248 0,-4.25 4.249,0 4.249,0 0,-4.252 -4.249,0 -4.249,0 L 0,-4.252 0,0 z m -2.408,-6.658 40.649,0 0,57.656 -40.649,0 0,-57.656 z"
         style="fill:#231f20;fill-opacity:1;fill-rule:nonzero;stroke:none"
         id="path3069" />
    </g>
  </g>
</svg>
