<svg width="280" height="39" viewBox="0 0 280 39" fill="none" xmlns="http://www.w3.org/2000/svg">
<path d="M73.106 14.4L68.93 27H66.446L63.332 17.676L60.164 27H57.662L53.486 14.4H55.916L59.048 23.976L62.306 14.4H64.466L67.652 24.03L70.874 14.4H73.106ZM74.8842 17.388H77.1342V27H74.8842V17.388ZM76.0182 15.804C75.6102 15.804 75.2682 15.678 74.9922 15.426C74.7162 15.162 74.5782 14.838 74.5782 14.454C74.5782 14.07 74.7162 13.752 74.9922 13.5C75.2682 13.236 75.6102 13.104 76.0182 13.104C76.4262 13.104 76.7682 13.23 77.0442 13.482C77.3202 13.722 77.4582 14.028 77.4582 14.4C77.4582 14.796 77.3202 15.132 77.0442 15.408C76.7802 15.672 76.4382 15.804 76.0182 15.804ZM84.0113 22.878L82.3373 24.462V27H80.0873V13.644H82.3373V21.708L86.9993 17.388H89.6993L85.6853 21.42L90.0773 27H87.3413L84.0113 22.878ZM91.4428 17.388H93.6928V27H91.4428V17.388ZM92.5768 15.804C92.1688 15.804 91.8268 15.678 91.5508 15.426C91.2748 15.162 91.1368 14.838 91.1368 14.454C91.1368 14.07 91.2748 13.752 91.5508 13.5C91.8268 13.236 92.1688 13.104 92.5768 13.104C92.9848 13.104 93.3268 13.23 93.6028 13.482C93.8788 13.722 94.0168 14.028 94.0168 14.4C94.0168 14.796 93.8788 15.132 93.6028 15.408C93.3388 15.672 92.9968 15.804 92.5768 15.804ZM108.778 17.28C109.99 17.28 110.95 17.634 111.658 18.342C112.366 19.038 112.72 20.088 112.72 21.492V27H110.47V21.78C110.47 20.94 110.284 20.31 109.912 19.89C109.54 19.458 109.006 19.242 108.31 19.242C107.554 19.242 106.948 19.494 106.492 19.998C106.036 20.49 105.808 21.198 105.808 22.122V27H103.558V21.78C103.558 20.94 103.372 20.31 103 19.89C102.628 19.458 102.094 19.242 101.398 19.242C100.63 19.242 100.018 19.488 99.5619 19.98C99.1179 20.472 98.8959 21.186 98.8959 22.122V27H96.6459V17.388H98.7879V18.612C99.1479 18.18 99.5979 17.85 100.138 17.622C100.678 17.394 101.278 17.28 101.938 17.28C102.658 17.28 103.294 17.418 103.846 17.694C104.41 17.958 104.854 18.354 105.178 18.882C105.574 18.378 106.084 17.988 106.708 17.712C107.332 17.424 108.022 17.28 108.778 17.28ZM124.719 22.248C124.719 22.404 124.707 22.626 124.683 22.914H117.141C117.273 23.622 117.615 24.186 118.167 24.606C118.731 25.014 119.427 25.218 120.255 25.218C121.311 25.218 122.181 24.87 122.865 24.174L124.071 25.56C123.639 26.076 123.093 26.466 122.433 26.73C121.773 26.994 121.029 27.126 120.201 27.126C119.145 27.126 118.215 26.916 117.411 26.496C116.607 26.076 115.983 25.494 115.539 24.75C115.107 23.994 114.891 23.142 114.891 22.194C114.891 21.258 115.101 20.418 115.521 19.674C115.953 18.918 116.547 18.33 117.303 17.91C118.059 17.49 118.911 17.28 119.859 17.28C120.795 17.28 121.629 17.49 122.361 17.91C123.105 18.318 123.681 18.9 124.089 19.656C124.509 20.4 124.719 21.264 124.719 22.248ZM119.859 19.08C119.139 19.08 118.527 19.296 118.023 19.728C117.531 20.148 117.231 20.712 117.123 21.42H122.577C122.481 20.724 122.187 20.16 121.695 19.728C121.203 19.296 120.591 19.08 119.859 19.08ZM136.294 13.644V27H134.134V25.758C133.762 26.214 133.3 26.556 132.748 26.784C132.208 27.012 131.608 27.126 130.948 27.126C130.024 27.126 129.19 26.922 128.446 26.514C127.714 26.106 127.138 25.53 126.718 24.786C126.298 24.03 126.088 23.166 126.088 22.194C126.088 21.222 126.298 20.364 126.718 19.62C127.138 18.876 127.714 18.3 128.446 17.892C129.19 17.484 130.024 17.28 130.948 17.28C131.584 17.28 132.166 17.388 132.694 17.604C133.222 17.82 133.672 18.144 134.044 18.576V13.644H136.294ZM131.218 25.2C131.758 25.2 132.244 25.08 132.676 24.84C133.108 24.588 133.45 24.234 133.702 23.778C133.954 23.322 134.08 22.794 134.08 22.194C134.08 21.594 133.954 21.066 133.702 20.61C133.45 20.154 133.108 19.806 132.676 19.566C132.244 19.314 131.758 19.188 131.218 19.188C130.678 19.188 130.192 19.314 129.76 19.566C129.328 19.806 128.986 20.154 128.734 20.61C128.482 21.066 128.356 21.594 128.356 22.194C128.356 22.794 128.482 23.322 128.734 23.778C128.986 24.234 129.328 24.588 129.76 24.84C130.192 25.08 130.678 25.2 131.218 25.2ZM139.238 17.388H141.488V27H139.238V17.388ZM140.372 15.804C139.964 15.804 139.622 15.678 139.346 15.426C139.07 15.162 138.932 14.838 138.932 14.454C138.932 14.07 139.07 13.752 139.346 13.5C139.622 13.236 139.964 13.104 140.372 13.104C140.78 13.104 141.122 13.23 141.398 13.482C141.674 13.722 141.812 14.028 141.812 14.4C141.812 14.796 141.674 15.132 141.398 15.408C141.134 15.672 140.792 15.804 140.372 15.804ZM148.113 17.28C149.529 17.28 150.609 17.622 151.353 18.306C152.109 18.978 152.487 19.998 152.487 21.366V27H150.363V25.83C150.087 26.25 149.691 26.574 149.175 26.802C148.671 27.018 148.059 27.126 147.339 27.126C146.619 27.126 145.989 27.006 145.449 26.766C144.909 26.514 144.489 26.172 144.189 25.74C143.901 25.296 143.757 24.798 143.757 24.246C143.757 23.382 144.075 22.692 144.711 22.176C145.359 21.648 146.373 21.384 147.753 21.384H150.237V21.24C150.237 20.568 150.033 20.052 149.625 19.692C149.229 19.332 148.635 19.152 147.843 19.152C147.303 19.152 146.769 19.236 146.241 19.404C145.725 19.572 145.287 19.806 144.927 20.106L144.045 18.468C144.549 18.084 145.155 17.79 145.863 17.586C146.571 17.382 147.321 17.28 148.113 17.28ZM147.807 25.488C148.371 25.488 148.869 25.362 149.301 25.11C149.745 24.846 150.057 24.474 150.237 23.994V22.878H147.915C146.619 22.878 145.971 23.304 145.971 24.156C145.971 24.564 146.133 24.888 146.457 25.128C146.781 25.368 147.231 25.488 147.807 25.488ZM160.565 14.4H166.073C167.417 14.4 168.611 14.664 169.655 15.192C170.699 15.708 171.509 16.446 172.085 17.406C172.661 18.354 172.949 19.452 172.949 20.7C172.949 21.948 172.661 23.052 172.085 24.012C171.509 24.96 170.699 25.698 169.655 26.226C168.611 26.742 167.417 27 166.073 27H160.565V14.4ZM165.965 25.02C166.889 25.02 167.699 24.846 168.395 24.498C169.103 24.138 169.643 23.634 170.015 22.986C170.399 22.326 170.591 21.564 170.591 20.7C170.591 19.836 170.399 19.08 170.015 18.432C169.643 17.772 169.103 17.268 168.395 16.92C167.699 16.56 166.889 16.38 165.965 16.38H162.905V25.02H165.965ZM184.256 22.248C184.256 22.404 184.244 22.626 184.22 22.914H176.678C176.81 23.622 177.152 24.186 177.704 24.606C178.268 25.014 178.964 25.218 179.792 25.218C180.848 25.218 181.718 24.87 182.402 24.174L183.608 25.56C183.176 26.076 182.63 26.466 181.97 26.73C181.31 26.994 180.566 27.126 179.738 27.126C178.682 27.126 177.752 26.916 176.948 26.496C176.144 26.076 175.52 25.494 175.076 24.75C174.644 23.994 174.428 23.142 174.428 22.194C174.428 21.258 174.638 20.418 175.058 19.674C175.49 18.918 176.084 18.33 176.84 17.91C177.596 17.49 178.448 17.28 179.396 17.28C180.332 17.28 181.166 17.49 181.898 17.91C182.642 18.318 183.218 18.9 183.626 19.656C184.046 20.4 184.256 21.264 184.256 22.248ZM179.396 19.08C178.676 19.08 178.064 19.296 177.56 19.728C177.068 20.148 176.768 20.712 176.66 21.42H182.114C182.018 20.724 181.724 20.16 181.232 19.728C180.74 19.296 180.128 19.08 179.396 19.08ZM195.723 17.388V27H193.581V25.776C193.221 26.208 192.771 26.544 192.231 26.784C191.691 27.012 191.109 27.126 190.485 27.126C189.201 27.126 188.187 26.772 187.443 26.064C186.711 25.344 186.345 24.282 186.345 22.878V17.388H188.595V22.572C188.595 23.436 188.787 24.084 189.171 24.516C189.567 24.936 190.125 25.146 190.845 25.146C191.649 25.146 192.285 24.9 192.753 24.408C193.233 23.904 193.473 23.184 193.473 22.248V17.388H195.723ZM204.447 26.478C204.183 26.694 203.859 26.856 203.475 26.964C203.103 27.072 202.707 27.126 202.287 27.126C201.231 27.126 200.415 26.85 199.839 26.298C199.263 25.746 198.975 24.942 198.975 23.886V19.26H197.391V17.46H198.975V15.264H201.225V17.46H203.799V19.26H201.225V23.832C201.225 24.3 201.339 24.66 201.567 24.912C201.795 25.152 202.125 25.272 202.557 25.272C203.061 25.272 203.481 25.14 203.817 24.876L204.447 26.478ZM209.268 27.126C208.488 27.126 207.726 27.024 206.982 26.82C206.238 26.616 205.644 26.358 205.2 26.046L206.064 24.336C206.496 24.624 207.012 24.858 207.612 25.038C208.224 25.206 208.824 25.29 209.412 25.29C210.756 25.29 211.428 24.936 211.428 24.228C211.428 23.892 211.254 23.658 210.906 23.526C210.57 23.394 210.024 23.268 209.268 23.148C208.476 23.028 207.828 22.89 207.324 22.734C206.832 22.578 206.4 22.308 206.028 21.924C205.668 21.528 205.488 20.982 205.488 20.286C205.488 19.374 205.866 18.648 206.622 18.108C207.39 17.556 208.422 17.28 209.718 17.28C210.378 17.28 211.038 17.358 211.698 17.514C212.358 17.658 212.898 17.856 213.318 18.108L212.454 19.818C211.638 19.338 210.72 19.098 209.7 19.098C209.04 19.098 208.536 19.2 208.188 19.404C207.852 19.596 207.684 19.854 207.684 20.178C207.684 20.538 207.864 20.796 208.224 20.952C208.596 21.096 209.166 21.234 209.934 21.366C210.702 21.486 211.332 21.624 211.824 21.78C212.316 21.936 212.736 22.2 213.084 22.572C213.444 22.944 213.624 23.472 213.624 24.156C213.624 25.056 213.234 25.776 212.454 26.316C211.674 26.856 210.612 27.126 209.268 27.126ZM219.972 27.126C218.976 27.126 218.082 26.916 217.29 26.496C216.498 26.076 215.88 25.494 215.436 24.75C214.992 23.994 214.77 23.142 214.77 22.194C214.77 21.246 214.992 20.4 215.436 19.656C215.88 18.912 216.492 18.33 217.272 17.91C218.064 17.49 218.964 17.28 219.972 17.28C220.92 17.28 221.748 17.472 222.456 17.856C223.176 18.24 223.716 18.792 224.076 19.512L222.348 20.52C222.072 20.076 221.724 19.746 221.304 19.53C220.896 19.302 220.446 19.188 219.954 19.188C219.114 19.188 218.418 19.464 217.866 20.016C217.314 20.556 217.038 21.282 217.038 22.194C217.038 23.106 217.308 23.838 217.848 24.39C218.4 24.93 219.102 25.2 219.954 25.2C220.446 25.2 220.896 25.092 221.304 24.876C221.724 24.648 222.072 24.312 222.348 23.868L224.076 24.876C223.704 25.596 223.158 26.154 222.438 26.55C221.73 26.934 220.908 27.126 219.972 27.126ZM231.387 17.28C232.599 17.28 233.571 17.634 234.303 18.342C235.035 19.05 235.401 20.1 235.401 21.492V27H233.151V21.78C233.151 20.94 232.953 20.31 232.557 19.89C232.161 19.458 231.597 19.242 230.865 19.242C230.037 19.242 229.383 19.494 228.903 19.998C228.423 20.49 228.183 21.204 228.183 22.14V27H225.933V13.644H228.183V18.504C228.555 18.108 229.011 17.808 229.551 17.604C230.103 17.388 230.715 17.28 231.387 17.28ZM238.255 13.644H240.505V27H238.255V13.644ZM247.13 17.28C248.546 17.28 249.626 17.622 250.37 18.306C251.126 18.978 251.504 19.998 251.504 21.366V27H249.38V25.83C249.104 26.25 248.708 26.574 248.192 26.802C247.688 27.018 247.076 27.126 246.356 27.126C245.636 27.126 245.006 27.006 244.466 26.766C243.926 26.514 243.506 26.172 243.206 25.74C242.918 25.296 242.774 24.798 242.774 24.246C242.774 23.382 243.092 22.692 243.728 22.176C244.376 21.648 245.39 21.384 246.77 21.384H249.254V21.24C249.254 20.568 249.05 20.052 248.642 19.692C248.246 19.332 247.652 19.152 246.86 19.152C246.32 19.152 245.786 19.236 245.258 19.404C244.742 19.572 244.304 19.806 243.944 20.106L243.062 18.468C243.566 18.084 244.172 17.79 244.88 17.586C245.588 17.382 246.338 17.28 247.13 17.28ZM246.824 25.488C247.388 25.488 247.886 25.362 248.318 25.11C248.762 24.846 249.074 24.474 249.254 23.994V22.878H246.932C245.636 22.878 244.988 23.304 244.988 24.156C244.988 24.564 245.15 24.888 245.474 25.128C245.798 25.368 246.248 25.488 246.824 25.488ZM259.846 17.28C261.058 17.28 262.03 17.634 262.762 18.342C263.494 19.05 263.86 20.1 263.86 21.492V27H261.61V21.78C261.61 20.94 261.412 20.31 261.016 19.89C260.62 19.458 260.056 19.242 259.324 19.242C258.496 19.242 257.842 19.494 257.362 19.998C256.882 20.49 256.642 21.204 256.642 22.14V27H254.392V17.388H256.534V18.63C256.906 18.186 257.374 17.85 257.938 17.622C258.502 17.394 259.138 17.28 259.846 17.28ZM276.216 13.644V27H274.056V25.758C273.684 26.214 273.222 26.556 272.67 26.784C272.13 27.012 271.53 27.126 270.87 27.126C269.946 27.126 269.112 26.922 268.368 26.514C267.636 26.106 267.06 25.53 266.64 24.786C266.22 24.03 266.01 23.166 266.01 22.194C266.01 21.222 266.22 20.364 266.64 19.62C267.06 18.876 267.636 18.3 268.368 17.892C269.112 17.484 269.946 17.28 270.87 17.28C271.506 17.28 272.088 17.388 272.616 17.604C273.144 17.82 273.594 18.144 273.966 18.576V13.644H276.216ZM271.14 25.2C271.68 25.2 272.166 25.08 272.598 24.84C273.03 24.588 273.372 24.234 273.624 23.778C273.876 23.322 274.002 22.794 274.002 22.194C274.002 21.594 273.876 21.066 273.624 20.61C273.372 20.154 273.03 19.806 272.598 19.566C272.166 19.314 271.68 19.188 271.14 19.188C270.6 19.188 270.114 19.314 269.682 19.566C269.25 19.806 268.908 20.154 268.656 20.61C268.404 21.066 268.278 21.594 268.278 22.194C268.278 22.794 268.404 23.322 268.656 23.778C268.908 24.234 269.25 24.588 269.682 24.84C270.114 25.08 270.6 25.2 271.14 25.2Z" fill="#141414"/>
<g clip-path="url(#clip0_3241_3553)">
<path d="M21.1914 31.3999C27.0157 30.5806 31.4941 25.5883 31.4941 19.5567C31.4941 15.8899 29.841 12.6093 27.2361 10.4146L21.1914 16.4427V31.3999Z" fill="#1D1D1B"/>
<path d="M17.8066 31.3999V16.4427L11.7619 10.4146C9.15702 12.6093 7.50391 15.8899 7.50391 19.5567C7.50391 25.5916 11.9823 30.5806 17.8066 31.3999Z" fill="#1D1D1B"/>
<path d="M29.9263 9.15543C32.7115 11.9331 34.2444 15.6266 34.2444 19.5532C34.2444 23.4799 32.7115 27.1734 29.9263 29.951C27.141 32.7286 23.4374 34.2573 19.5 34.2573C15.5626 34.2573 11.859 32.7286 9.07373 29.951C6.28849 27.1734 4.75561 23.4799 4.75561 19.5532C4.75561 15.6266 6.28849 11.9331 9.07373 9.15543C9.31418 8.91563 9.55797 8.68916 9.81178 8.46935L6.44211 5.10889C6.19164 5.33203 5.94785 5.56516 5.71074 5.80163C3.92071 7.58677 2.51473 9.66499 1.53288 11.983C0.5143 14.381 0 16.9288 0 19.5532C0 22.1776 0.5143 24.7255 1.53288 27.1234C2.51473 29.4381 3.92071 31.5196 5.71074 33.3048C7.50077 35.0899 9.58469 36.4921 11.9091 37.4712C14.3136 38.487 16.8684 38.9999 19.5 38.9999C22.1316 38.9999 24.6864 38.487 27.0909 37.4712C29.412 36.4921 31.4992 35.0899 33.2893 33.3048C35.0793 31.5196 36.4853 29.4414 37.4671 27.1234C38.4857 24.7255 39 22.1776 39 19.5532C39 16.9288 38.4857 14.381 37.4671 11.983C36.4853 9.66832 35.0793 7.58677 33.2893 5.80163C33.0522 5.56516 32.805 5.33203 32.5579 5.10889L29.1882 8.46935C29.4387 8.68916 29.6858 8.91896 29.9263 9.15543Z" fill="#1D1D1B"/>
<path d="M19.5 0C22.8563 0 25.5781 2.71435 25.5781 6.06149C25.5781 9.40863 22.8563 12.123 19.5 12.123C16.1437 12.123 13.4219 9.40863 13.4219 6.06149C13.4219 2.71435 16.1437 0 19.5 0Z" fill="#1D1D1B"/>
</g>
<defs>
<clipPath id="clip0_3241_3553">
<rect width="39" height="39" fill="white"/>
</clipPath>
</defs>
</svg>