<?xml version="1.0" encoding="UTF-8" standalone="no"?>
<svg xmlns:dc="http://purl.org/dc/elements/1.1/" xmlns:cc="http://creativecommons.org/ns#" xmlns:rdf="http://www.w3.org/1999/02/22-rdf-syntax-ns#" xmlns:svg="http://www.w3.org/2000/svg" xmlns="http://www.w3.org/2000/svg" xmlns:sodipodi="http://sodipodi.sourceforge.net/DTD/sodipodi-0.dtd" xmlns:inkscape="http://www.inkscape.org/namespaces/inkscape" sodipodi:docname="ZZ.svg" inkscape:version="0.47 r22583" sodipodi:version="0.32" id="svg2" width="675.1488" height="593.53833" version="1.1" inkscape:output_extension="org.inkscape.output.svg.inkscape">
  <defs id="defs7416">
    <inkscape:perspective sodipodi:type="inkscape:persp3d" inkscape:vp_x="0 : 335.76001 : 1" inkscape:vp_y="0 : 1000 : 0" inkscape:vp_z="753.12 : 335.76001 : 1" inkscape:persp3d-origin="376.56 : 223.84001 : 1" id="perspective9"/>
  </defs>
  <sodipodi:namedview inkscape:window-height="1004" inkscape:window-width="1280" inkscape:pageshadow="2" inkscape:pageopacity="0.0" guidetolerance="10.0" gridtolerance="10.0" objecttolerance="10.0" borderopacity="1.0" bordercolor="#666666" pagecolor="#ffffff" id="base" inkscape:zoom="0.60608766" inkscape:cx="337.57439" inkscape:cy="230.77212" inkscape:window-x="-8" inkscape:window-y="-8" inkscape:current-layer="svg2" showgrid="false" inkscape:window-maximized="1"/>
  <metadata id="metadata7407">
    <rdf:RDF>
      <cc:Work>
        <dc:format>image/svg+xml</dc:format>
        <dc:type rdf:resource="http://purl.org/dc/dcmitype/StillImage"/>
        <dc:creator>
          <cc:Agent>
            <dc:title>MarianSigler, mariansigler@gmail.com</dc:title>
          </cc:Agent>
        </dc:creator>
        <cc:license rdf:resource="http://web.resource.org/cc/PublicDomain"/>
      </cc:Work>
      <cc:License rdf:about="http://web.resource.org/cc/PublicDomain">
        <cc:permits rdf:resource="http://web.resource.org/cc/Reproduction"/>
        <cc:permits rdf:resource="http://web.resource.org/cc/Distribution"/>
        <cc:permits rdf:resource="http://web.resource.org/cc/DerivativeWorks"/>
        <cc:requires rdf:resource="http://web.resource.org/cc/ShareAlike"/>
      </cc:License>
    </rdf:RDF>
  </metadata>
  <path style="fill:#ffffff;fill-rule:evenodd;stroke:#000000;stroke-width:2" d="m 33,592.53834 c -11.4325,0 -21.99656,-6.09918 -27.71282,-16 -5.71624,-9.90085 -5.71624,-22.09918 0,-32 L 309.86158,17.00001 C 315.57784,7.09918 326.1419,1 337.57439,1 c 11.43251,0 21.99659,6.09918 27.71283,16.00001 l 304.5744,527.53833 c 5.71624,9.90082 5.71624,22.09915 0,32 -5.71626,9.90081 -16.28032,16 -27.71282,16 l -609.1488,0 z" id="path7409"/>
  <path style="fill:#cc0000;fill-rule:evenodd;stroke:none" d="m 33,580.53834 c -7.14532,0 -13.74786,-3.81198 -17.32052,-10 -3.57264,-6.18804 -3.57264,-13.81198 0,-20 L 320.2539,23.00002 C 323.82654,16.81198 330.4291,13 337.57439,13 c 7.14533,0 13.74787,3.81198 17.32053,10.00002 l 304.5744,527.53832 c 3.57264,6.18802 3.57264,13.81196 0,20 -3.57266,6.18802 -10.1752,10 -17.32052,10 l -609.1488,0 z m 69.28209,-60 235.2923,-407.53833 235.29233,407.53833 -470.58463,0 z" id="path7411"/>
  <path style="fill:#000000" d="m 224.04388,362.08677 c -5.26931,0.0142 -11.12156,3.79786 -13.70964,8.87094 -1.09692,2.15015 -1.93011,2.83555 -3.82488,3.11059 -2.12543,0.30854 -9.04134,1.9273 -14.58521,3.41013 -1.11373,0.2979 -1.937,1.12326 -2.07373,2.07373 -0.32653,2.26982 3.90915,3.54126 9.35481,2.81105 2.27731,-0.30536 6.13822,-0.50987 8.57141,-0.43779 3.73663,0.1107 5.0216,0.55177 8.27187,2.76497 2.11645,1.44116 5.49594,3.09579 7.5115,3.68663 3.30373,0.96846 3.85072,1.44579 5.55298,4.86174 2.45347,4.92348 2.4473,9.74138 0,17.48843 -1.03381,3.27258 -2.07038,7.5652 -2.30414,9.53914 -1.01232,8.54742 4.94436,23.69648 12.71885,32.35015 3.04974,3.39462 7.87047,7.09217 18.04143,13.82484 7.63643,5.05496 14.52311,9.19352 15.2995,9.19353 2.11655,0 15.6451,7.33068 15.64512,8.47923 0,1.40156 -4.98649,9.60756 -7.41934,12.21195 -2.46974,2.64387 -3.38431,2.66675 -10.27647,0.32258 -2.98076,-1.01382 -6.36595,-1.84332 -7.5115,-1.84331 -1.79415,0 -2.07374,0.30208 -2.07373,2.09677 0,1.269 -0.72058,2.74706 -1.84331,3.80183 -1.01382,0.95244 -1.83688,2.09833 -1.82027,2.53456 0.0166,0.43622 1.65031,1.55547 3.64054,2.48847 1.99022,0.933 3.82746,2.34314 4.07833,3.13363 0.25089,0.79049 0.84661,1.42856 1.31336,1.42857 0.46675,0 5.01018,-1.45562 10.09214,-3.24884 5.08196,-1.79322 10.64973,-3.64855 12.37324,-4.10137 3.70156,-0.97253 3.92641,-1.8386 0.92166,-3.54838 -1.21402,-0.69081 -2.20941,-1.56546 -2.21198,-1.93548 -0.007,-1.00192 4.47041,-7.81104 5.13824,-7.81104 0.31689,0 1.53427,0.5002 2.69584,1.10599 2.47195,1.28921 6.16586,1.40015 10.04606,0.32258 3.11573,-0.86528 3.36935,-1.71996 1.29032,-4.37787 -1.94769,-2.48997 -1.83894,-3.66949 0.59907,-6.58984 l 2.07373,-2.48847 5.27648,1.31336 c 6.93633,1.69983 12.68354,0.75814 22.28105,-3.6175 3.85252,-1.75643 9.11042,-3.60867 11.68199,-4.12442 2.85431,-0.57246 4.82722,-1.38323 5.09216,-2.07372 0.23874,-0.62209 0.0695,-1.2518 -0.39171,-1.40553 -0.77979,-0.25995 -11.5218,-8.33359 -12.99535,-9.76956 -0.38315,-0.37337 0.47737,-1.20825 2.05068,-1.95852 1.51291,-0.72145 2.62843,-1.73209 2.51151,-2.30414 -0.11536,-0.56441 -3.84526,-2.37312 -8.2949,-4.00921 -9.62981,-3.54076 -11.5705,-4.70428 -20.06907,-12.05065 -16.30949,-14.09831 -29.06527,-19.6601 -48.15655,-21.01377 -16.40996,-1.16354 -17.26873,-1.86219 -18.36401,-15.20733 -0.58883,-7.17449 -1.19115,-10.14848 -2.99538,-14.65434 -5.41166,-13.51496 -11.64127,-21.6682 -17.9723,-23.54832 -2.04476,-0.60723 -4.39157,-1.10825 -5.2304,-1.10599 z m -2.41935,8.11058 c 1.22235,0 2.74191,1.48511 2.74193,2.69584 0,1.09146 -2.54483,2.6395 -3.2258,1.95852 -0.88148,-0.88148 -0.49119,-4.65437 0.48387,-4.65436 z m 206.35888,55.46067 c -2.65297,0.0565 -5.11844,1.0986 -7.35025,3.11059 -2.21197,1.99419 -3.6154,2.56814 -7.51142,3.08755 -2.63601,0.35142 -4.79269,0.96546 -4.79262,1.35945 0,0.39398 1.45276,1.27199 3.24881,1.93548 1.79612,0.66347 4.61145,2.41106 6.24426,3.89399 l 2.9723,2.69585 -1.26731,4.72349 c -2.04431,7.67204 -1.50474,12.19914 1.88947,16.12899 1.11402,1.29001 2.88331,3.44366 3.94004,4.76957 1.05666,1.32592 3.37909,3.26434 5.16128,4.30874 1.78211,1.04441 3.2488,2.37592 3.24887,2.97234 0,3.23584 -4.17171,6.15205 -8.80189,6.15206 -1.51675,0 -2.47314,0.50803 -3.06447,1.6129 -0.73239,1.36848 -0.62916,1.80112 0.76033,2.92626 1.57352,1.2741 1.72895,1.27129 4.33178,-0.0461 1.48697,-0.75256 3.7535,-1.59251 5.0231,-1.86636 2.02005,-0.43572 2.36011,-0.87249 2.78798,-3.54837 0.672,-4.20227 1.57596,-5.0994 4.5622,-4.53916 1.35225,0.25367 4.14981,0.0591 6.22118,-0.43779 3.94941,-0.94745 4.64419,-0.70062 5.46078,2.0046 0.53227,1.76311 0.16265,2.16609 -5.43778,6.1751 l -3.2488,2.32718 1.77415,1.42857 c 0.97814,0.78054 2.46083,1.71349 3.27196,2.07373 2.4968,1.10902 3.23855,0.8251 4.46996,-1.65898 0.65342,-1.31797 2.01312,-3.09763 3.04146,-3.96313 l 1.8664,-1.56681 -2.1659,-1.93548 c -1.7159,-1.52888 -2.09887,-2.40614 -1.84331,-4.14745 0.31005,-2.11233 0.48722,-2.21199 4.03228,-2.21198 3.58982,0 8.6635,-2.17263 8.66357,-3.70967 0,-1.29462 -2.1375,-8.75644 -2.92629,-10.23038 -1.19919,-2.24065 -4.79638,-3.87352 -7.21193,-3.27188 -1.77385,0.44182 -1.92419,0.34856 -1.10598,-0.64516 0.5159,-0.62669 1.92611,-1.32532 3.13363,-1.56682 3.17463,-0.63493 2.77138,-2.51715 -0.92166,-4.19354 -2.20313,-0.99999 -4.82196,-1.41717 -8.77881,-1.42856 -4.78915,-0.0138 -5.67284,-0.20847 -5.96769,-1.33641 -0.20468,-0.78259 -1.60523,-1.71726 -3.41013,-2.25805 -2.61507,-0.78348 -3.05548,-1.19424 -3.04147,-2.90322 0.009,-1.09893 0.68151,-2.8341 1.47465,-3.84792 3.43513,-4.39166 1.05711,-10.02854 -5.00002,-11.84328 -1.27587,-0.38228 -2.52681,-0.55566 -3.73271,-0.52996 z m -3.13363,5.43778 c 0.78429,-0.0627 1.71716,0.16656 2.3733,0.76036 1.6682,1.50973 1.69799,2.05773 0.20734,3.54838 -0.6372,0.63726 -1.45681,1.15206 -1.84332,1.15207 -0.65843,0 -2.14288,-3.04996 -2.14281,-4.40091 0,-0.64622 0.6212,-0.99725 1.40549,-1.0599 z m -47.99526,4.07833 c -0.64991,0.0216 -1.30165,0.11425 -1.93548,0.25345 -1.20073,0.26373 -3.59688,1.67954 -5.32257,3.15668 -2.66572,2.28174 -3.7934,2.72976 -7.46541,2.99538 -5.23324,0.37854 -5.80975,1.89185 -1.19816,3.13363 1.97257,0.53116 4.29319,2.01206 6.29031,4.00921 2.92777,2.9278 3.09631,3.32033 2.35022,5.27648 -2.56464,6.72404 -2.09664,14.88612 1.01382,17.62668 0.94526,0.8328 2.354,2.59411 3.13364,3.91704 0.77964,1.32293 3.14235,3.55145 5.25344,4.9539 4.60368,3.05827 4.94171,3.52318 3.91704,5.43778 -0.95967,1.79317 -3.85546,3.35208 -7.48846,4.0092 -3.03697,0.54932 -4.70068,2.07389 -4.05529,3.75575 0.72044,1.87748 2.59091,2.10218 5.85252,0.69124 4.2697,-1.84706 5.66788,-3.14437 7.235,-6.77417 1.3395,-3.1025 1.3614,-3.11665 4.8617,-2.9493 1.94168,0.0928 4.94252,-0.10528 6.65901,-0.43779 2.93278,-0.56812 3.17986,-0.48837 4.03221,1.38249 0.97076,2.13053 0.37412,2.90609 -5.73728,7.5115 l -2.14281,1.6129 1.84331,1.54377 c 1.01382,0.84803 2.50691,1.85174 3.31797,2.21198 2.2731,1.00964 2.50012,0.9036 4.00913,-1.65899 0.77611,-1.31796 2.16921,-3.16465 3.11063,-4.10137 l 1.72814,-1.70506 -2.02765,-1.63594 c -1.45031,-1.17486 -2.02764,-2.31501 -2.02764,-4.00921 0,-2.36739 0.005,-2.37327 3.89396,-2.37326 3.80312,0 6.4614,-1.10798 8.41008,-3.5023 0.6779,-0.83284 0.64767,-1.58657 -0.13817,-3.38708 -0.55728,-1.27649 -1.22647,-3.27983 -1.47466,-4.447 -0.2484,-1.16717 -1.4352,-3.11714 -2.64979,-4.33178 -1.86146,-1.86144 -2.6324,-2.14779 -4.79262,-1.79723 -3.17477,0.51519 -2.66174,-0.56044 0.80649,-1.70507 2.64537,-0.87307 3.2763,-2.20499 1.65898,-3.52533 -1.93902,-1.58284 -8.79327,-3.05332 -12.0737,-2.60368 -2.67819,0.36709 -3.47361,0.18905 -4.28578,-0.92166 -0.54805,-0.74952 -2.09695,-1.73905 -3.43313,-2.18893 -3.28935,-1.10753 -4.28537,-2.80716 -2.92626,-4.95391 2.8122,-4.442 3.13234,-5.62215 2.23502,-8.34099 -1.20501,-3.65136 -5.88842,-6.28018 -10.43776,-6.12901 z m 106.45128,2.07372 c -2.69499,0.0591 -5.18649,1.23075 -7.67275,3.54838 -1.41471,1.31875 -3.43158,2.0869 -7.00459,2.6728 -2.75981,0.45257 -5.00002,1.12531 -4.99995,1.47466 0,0.34935 1.66223,1.26388 3.70963,2.02764 2.04748,0.76376 4.86244,2.53744 6.24426,3.96312 l 2.51148,2.60368 -1.26732,4.72349 c -2.14318,8.04343 -1.34495,12.84222 2.71896,16.58982 1.06603,0.98313 1.93541,2.17721 1.93548,2.6728 0,1.12138 4.41319,5.05835 7.41926,6.61289 4.42477,2.28814 1.28922,7.396 -5.06911,8.24882 -1.67181,0.22424 -3.60802,1.02305 -4.3087,1.79723 -1.21054,1.33769 -1.19101,1.48177 0.23041,2.90322 l 1.49766,1.49769 3.24887,-1.47465 c 1.78765,-0.81425 4.10019,-1.66978 5.16128,-1.88939 1.60486,-0.33221 2.01666,-0.90053 2.35022,-3.38709 0.55454,-4.13465 1.71502,-5.35843 4.60828,-4.81566 1.28759,0.24157 4.05271,0.0816 6.1521,-0.36866 4.35376,-0.9337 5.99069,-0.20319 5.99076,2.69585 0,1.28979 -1.16925,2.49587 -4.58527,4.81565 -4.26742,2.89793 -4.46281,3.17258 -2.9493,3.84792 0.89142,0.39778 1.6359,1.00281 1.63597,1.35944 0,0.35662 0.74647,0.94659 1.65898,1.31336 2.70422,1.08698 4.09474,0.85746 4.60829,-0.76037 0.2658,-0.83769 1.51491,-2.67769 2.76497,-4.10137 l 2.28106,-2.60368 -2.02764,-1.6129 c -1.64181,-1.30913 -1.99447,-2.09376 -1.79724,-4.17049 l 0.2535,-2.58064 3.68662,0.23041 c 2.93153,0.18855 4.21507,-0.11676 6.26727,-1.52073 2.81916,-1.9288 2.82513,-2.02427 1.22116,-7.9032 -0.736,-2.69775 -1.85423,-4.71332 -3.38713,-6.08294 -1.99926,-1.78642 -2.70016,-1.99182 -5.41469,-1.58985 -2.93994,0.43535 -3.02754,0.38922 -1.63591,-0.71429 0.81099,-0.64317 1.90879,-1.18525 2.44232,-1.19815 0.53367,-0.0129 1.63177,-0.37264 2.44246,-0.80645 1.20516,-0.64503 1.29769,-0.99214 0.553,-1.8894 -1.66275,-2.00342 -5.9309,-3.2258 -11.26729,-3.22579 -4.27818,0 -5.406,-0.25244 -6.08293,-1.33641 -0.45796,-0.73335 -2.20387,-1.73552 -3.87096,-2.23501 -3.65485,-1.095 -3.87221,-2.45513 -1.15207,-7.09676 2.83383,-4.83557 1.37474,-8.88906 -3.98613,-11.129 -1.80792,-0.75536 -3.49816,-1.14144 -5.11527,-1.10599 z m -108.73238,3.15668 c 0.16183,10e-4 0.32874,0.0359 0.50691,0.0922 1.20722,0.38127 2.15945,2.46551 1.68202,3.70967 -0.7747,2.01888 -3.24894,1.45984 -3.68662,-0.82949 -0.32871,-1.7196 0.36491,-2.98287 1.49769,-2.97234 z m 104.76926,2.30414 c 0.44652,-0.007 0.97696,0.14513 1.56682,0.46083 1.69105,0.90501 1.97831,2.95254 0.62215,4.30874 -1.45194,1.45195 -2.60902,1.00789 -3.41013,-1.29032 -0.72604,-2.08254 -0.11819,-3.4583 1.22116,-3.47925 z" id="path2229"/>
</svg>