<?xml version="1.0" standalone="no"?>
<!DOCTYPE svg PUBLIC "-//W3C//DTD SVG 20010904//EN"
 "http://www.w3.org/TR/2001/REC-SVG-20010904/DTD/svg10.dtd">
<svg version="1.0" xmlns="http://www.w3.org/2000/svg"
 width="400.000000pt" height="400.000000pt" viewBox="0 0 400.000000 400.000000"
 preserveAspectRatio="xMidYMid meet">
<metadata>
Created by potrace 1.14, written by Peter Selinger 2001-2017
</metadata>
<g transform="translate(0.000000,400.000000) scale(0.100000,-0.100000)"
fill="#000000" stroke="none">
<path d="M0 2000 l0 -2000 2000 0 2000 0 0 2000 0 2000 -2000 0 -2000 0 0
-2000z m1570 670 l0 -110 430 0 430 0 0 110 0 110 110 0 110 0 0 -215 0 -214
108 -3 107 -3 3 -107 3 -108 109 0 110 0 0 -220 0 -220 105 0 105 0 0 -215 0
-215 110 0 110 0 0 -220 0 -220 110 0 110 0 0 -105 0 -105 -1740 0 -1740 0 0
105 0 105 110 0 110 0 0 220 0 220 110 0 110 0 0 215 0 215 105 0 105 0 0 220
0 220 110 0 109 0 3 108 3 107 108 3 107 3 0 214 0 215 110 0 110 0 0 -110z"/>
<path d="M2437 2343 c-4 -3 -7 -53 -7 -110 l0 -103 -105 0 -105 0 0 -220 0
-220 -110 0 -110 0 0 -215 0 -215 -110 0 -110 0 2 -217 3 -218 108 -3 107 -3
0 111 0 110 110 0 110 0 0 -110 0 -110 325 0 325 0 0 110 0 110 110 0 110 0 0
-110 0 -110 105 0 105 0 0 220 0 220 -105 0 -105 0 0 215 0 215 -110 0 -110 0
0 220 0 220 -110 0 -110 0 0 110 0 110 -103 0 c-57 0 -107 -3 -110 -7z m213
-758 l0 -105 110 0 110 0 0 -220 0 -220 -110 0 -110 0 0 220 0 221 -107 -3
-108 -3 -3 -217 -2 -218 -105 0 -105 0 0 220 0 220 105 0 105 0 0 105 0 105
110 0 110 0 0 -105z"/>
<path d="M1570 2020 l0 -110 -110 0 -110 0 0 -110 0 -111 108 3 107 3 3 108 3
107 104 0 105 0 0 110 0 110 -105 0 -105 0 0 -110z"/>
<path d="M1130 1150 l0 -110 -110 0 -111 0 3 -107 3 -108 108 -3 107 -3 0 111
0 110 110 0 110 0 0 110 0 110 -110 0 -110 0 0 -110z"/>
</g>
</svg>
