<?xml version="1.0" standalone="no"?>
<!DOCTYPE svg PUBLIC "-//W3C//DTD SVG 20010904//EN"
 "http://www.w3.org/TR/2001/REC-SVG-20010904/DTD/svg10.dtd">
<svg version="1.0" xmlns="http://www.w3.org/2000/svg"
 width="700.000000pt" height="700.000000pt" viewBox="0 0 700.000000 700.000000"
 preserveAspectRatio="xMidYMid meet">
<metadata>
Created by potrace 1.14, written by Peter Selinger 2001-2017
</metadata>
<g transform="translate(0.000000,700.000000) scale(0.100000,-0.100000)"
fill="#000000" stroke="none">
<path d="M0 3500 l0 -3500 3500 0 3500 0 0 3500 0 3500 -3500 0 -3500 0 0
-3500z m2770 2255 l0 -225 730 0 730 0 0 225 0 225 180 0 180 0 0 -450 0 -450
185 0 185 0 0 -450 0 -450 180 0 180 0 0 -455 0 -455 185 0 185 0 0 -450 0
-450 180 0 180 0 0 -450 0 -450 185 0 185 0 0 -225 0 -225 -2920 0 -2920 0 0
225 0 225 185 0 185 0 0 450 0 450 180 0 180 0 0 450 0 450 185 0 185 0 0 455
0 455 180 0 180 0 0 450 0 450 185 0 185 0 0 450 0 450 180 0 180 0 0 -225z"/>
<path d="M2410 4630 l0 -450 -185 0 -185 0 0 -455 0 -455 -180 0 -180 0 -2
-447 -3 -448 -182 -3 -183 -2 0 -450 0 -450 730 0 730 0 0 450 0 450 185 0
185 0 0 -450 0 -450 180 0 180 0 0 225 0 225 180 0 180 0 2 -222 3 -223 548
-3 547 -2 0 225 0 225 180 0 180 0 0 -225 0 -225 185 0 185 0 0 450 0 450
-182 2 -183 3 -3 448 -2 447 -180 0 -180 0 0 455 0 455 -185 0 -185 0 0 450 0
450 -180 0 -180 0 0 -450 0 -450 -185 0 -185 0 0 450 0 450 -725 0 -725 0 0
-450z m1450 -905 l0 -455 -180 0 -180 0 0 -450 0 -450 -180 0 -180 0 0 450 0
450 180 0 180 0 0 455 0 455 180 0 180 0 0 -455z m-1090 -450 l0 -455 -180 0
-180 0 -2 -447 -3 -448 -182 -3 -183 -2 0 450 0 450 185 0 185 0 0 455 0 455
180 0 180 0 0 -455z m1820 0 l0 -455 185 0 185 0 0 -450 0 -450 -182 2 -183 3
-3 448 -2 447 -180 0 -180 0 0 -450 0 -450 -185 0 -185 0 0 450 0 450 185 0
185 0 0 455 0 455 180 0 180 0 0 -455z"/>
</g>
</svg>
