<?xml version="1.0" encoding="UTF-8"?>
<svg width="910" height="380" version="1.1" viewBox="0 0 910 380" xml:space="preserve" xmlns="http://www.w3.org/2000/svg"><g fill="#231f20"><path d="m783.19 176c3.8641 0 7.6408-3.0013 7.6408-7.5011 0-4.3934-3.7767-7.4001-7.6408-7.4001-3.869 0-7.6457 3.0067-7.6457 7.4001 0 4.4999 3.7766 7.5011 7.6457 7.5011" stroke-width=".84503"/><path d="m762 176c3.8678 0 7.6408-3.0013 7.6408-7.5011 0-4.3934-3.773-7.4001-7.6408-7.4001-3.874 0-7.6457 3.0067-7.6457 7.4001 0 4.4999 3.7717 7.5011 7.6457 7.5011" stroke-width=".84503"/><path d="m763.71 166.89c1.1968 0 2.3642-0.96319 2.3642-2.4073 0-1.41-1.1674-2.3749-2.3642-2.3749-1.1987 0-2.3658 0.96494-2.3658 2.3749 0 1.4441 1.167 2.4073 2.3658 2.4073" fill="#fff" stroke-width=".26629"/><path d="m781.4 166.83c1.2143 0 2.3989-0.94229 2.3989-2.355 0-1.3793-1.1846-2.3233-2.3989-2.3233-1.2163 0-2.4004 0.94398-2.4004 2.3233 0 1.4128 1.1842 2.355 2.4004 2.355" fill="#fff" stroke-width=".2653"/><path d="m30 350h240v-320h-240z" stroke-width=".97014"/><path d="m187.5 160v30.909h-12.5v30.909h-12.5v-30.909h-50v-30.909h12.5v15.455h50v-15.455zm-75 30.909v30.909h-12.5v-30.909zm-12.5 30.909v30.909h-12.5v-30.909zm-12.5 30.909v30.909h-12.5v-30.909zm-12.5 30.909v30.909h50v-30.909h12.5v30.909h12.5v-15.455h12.5v15.455h37.5v-15.455h12.5v15.455h12.5v-30.909h12.5v30.909h12.5v15.455h-200v-15.455h12.5v-30.909zm150 0h-12.5v-30.909h12.5zm-12.5-30.909h-12.5v-30.909h12.5zm-12.5-30.909h-12.5v-30.909h12.5zm0 77.273h-12.5v-30.909h12.5zm-12.5-30.909h-12.5v-30.909h12.5zm-12.5 0v30.909h-12.5v-30.909zm-37.5 15.455v-30.909h12.5v30.909zm12.5-30.909v-30.909h12.5v30.909zm-25-15.455v30.909h-12.5v-30.909zm-12.5 30.909v30.909h-12.5v-30.909z" fill="#fff"/><g transform="matrix(.92384 0 0 .92384 -26.063 207.19)" style="shape-inside:url(#rect455);white-space:pre" aria-label="HAUS"><path d="m420.73 136.33q0 4.4826 0.656 6.6693 0.65599 2.1867 2.1867 3.1707 1.5307 0.87466 4.592 1.0933 0.656 2.296 0.656 6.6693-5.6853-0.328-15.416-0.328-10.277 0-17.056 0.328 0-3.8266 0.76533-6.6693 3.0613-0.21867 4.592-1.0933 1.5307-0.984 2.0773-3.1707 0.656-2.1867 0.656-6.6693v-17.384q-19.899 0-27.005 0.76533v16.619q0 4.4826 0.54667 6.6693 0.65599 2.1867 2.1867 3.1707 1.5307 0.87466 4.592 1.0933 0.76533 2.1867 0.76533 6.6693-5.6853-0.328-15.416-0.328-10.387 0-17.165 0.328 0-3.3893 0.87466-6.6693 3.0613-0.21867 4.4827-1.0933 1.5307-0.984 2.0773-3.1707 0.656-2.1867 0.656-6.6693v-39.469q0-4.4827-0.656-6.56-0.54666-2.1867-2.0773-3.0613-1.4213-0.87466-4.4827-1.2027-0.87466-2.624-0.87466-6.6693 5.6853 0.328 16.619 0.328 9.4026 0 15.963-0.328 0 4.264-0.76533 6.6693-3.0613 0.328-4.592 1.2027-1.5307 0.87466-2.1867 3.0613-0.54667 2.1867-0.54667 6.56v15.307h27.005v-15.307q0-4.3733-0.656-6.56-0.54666-2.1867-2.0773-3.0613-1.4213-0.87466-4.592-1.2027-0.76533-2.296-0.76533-6.6693 5.7946 0.328 16.509 0.328 9.4026 0 15.963-0.328 0 2.4053-0.10933 3.8267-0.10934 1.4213-0.656 2.8427-3.0613 0.328-4.592 1.2027-1.5307 0.87466-2.1867 3.0613-0.54666 2.1867-0.54666 6.56z"/><path d="m508.63 147.26q0.76533 2.624 0.76533 6.6693-5.0293-0.328-14.979-0.328-11.043 0-15.963 0.328 0-4.3733 0.87466-6.6693 2.624-0.43733 3.8267-1.2027 1.2027-0.87467 1.2027-2.4053 0-1.4213-1.4213-4.8106l-2.624-6.232q-14.651 0-26.896 0.76533l-1.4213 3.8266q-1.2027 3.0613-1.2027 5.0293 0 4.3733 5.248 5.0293 0.76534 2.4053 0.76534 6.6693-3.7173-0.328-11.589-0.328-6.56 0-9.84 0.328 0-4.0453 0.98399-6.6693 2.7333-0.43733 4.3733-2.624 1.7493-2.296 4.3733-8.7466l22.851-56.306q1.5307-0.328 3.0613-0.43733 1.5307-0.10933 3.3893-0.10933l25.037 56.306q2.296 5.0293 3.608 7.4346 1.4213 2.4053 2.624 3.3893 1.2027 0.87466 2.952 1.0933zm-30.941-20.664-6.1226-14.213q-3.3893-7.544-5.1386-13.885-1.968 6.56-4.8106 13.885l-5.4666 14.213z"/><path d="m570.73 123.76q0 9.84-1.4213 15.525-1.312 5.6853-5.0293 9.2933-6.3413 6.0133-18.587 6.0133-10.496 0-16.619-2.8427-6.0133-2.952-8.6373-8.7466t-2.624-15.088v-30.723q0-4.592-0.54667-6.7786-0.54666-2.1867-1.968-3.0613-1.312-0.87466-4.3733-1.312-0.656-2.8427-0.656-6.6693 4.4826 0.328 13.776 0.328 12.901 0 17.931-0.328 0 4.264-0.656 6.6693-3.28 0.43733-4.7013 1.312t-1.968 3.0613q-0.54667 2.0773-0.54667 6.7786v28.973q0 10.277 3.608 15.635t11.699 5.3573q2.8427 0 5.6853-1.0933t4.7013-3.28q2.0773-2.5147 2.952-6.6693 0.984-4.264 0.984-12.573v-23.179q0-5.4666-0.656-8.3093-0.656-2.952-2.1867-4.264t-4.592-1.7493q-0.54666-3.1707-0.54666-6.6693 4.0453 0.328 11.261 0.328 6.9973 0 11.043-0.328 0 3.8267-0.656 6.6693-2.7333 0.328-4.1546 1.64-1.4213 1.2027-1.968 4.0453-0.54666 2.8427-0.54666 8.0906z"/><path d="m611.73 154.59q-6.888 0-12.792-1.64-5.904-1.64-11.917-4.92 1.312-6.7786 1.312-17.056 3.7173-1.0933 9.84-1.0933 0.54666 9.512 3.608 13.557 3.0613 3.936 10.387 3.936 6.1226 0 9.0746-2.5147 3.0613-2.624 3.0613-6.6693 0-3.1707-1.8587-5.4666t-4.7013-3.8267q-2.7333-1.64-7.7626-4.0453-6.888-3.28-11.152-6.0133-4.1547-2.7333-7.216-7.3253-3.0613-4.7013-3.0613-11.589 0-10.387 6.6693-15.744 6.7786-5.4666 17.712-5.4666 5.7946 0 11.589 1.4213t8.9653 3.3893q0 11.152 0.65599 15.525-1.64 0.87466-4.3733 1.312-2.624 0.43733-5.1386 0.43733-1.4213-8.6373-4.4826-11.917-2.952-3.28-8.0906-3.28-4.7013 0-7.4346 2.1867-2.7333 2.1867-2.7333 6.232 0 3.3893 1.968 5.904 2.0773 2.5147 5.0293 4.264 3.0613 1.7493 8.4186 4.264 6.888 3.1707 11.261 5.904 4.3733 2.7333 7.4346 7.3253 3.0613 4.4826 3.0613 11.043 0 9.84-7.1066 15.853-6.9973 6.0133-20.227 6.0133z"/></g><g transform="matrix(.93429 0 0 .93429 -28.015 105.3)" style="shape-inside:url(#rect455-9);white-space:pre" aria-label="TEMPORAR"><path d="m415.48 79.366q-0.10933 8.4186 1.7493 19.243-3.4986 1.5307-8.6373 1.312-0.87467-7.1066-3.7173-10.387-2.8426-3.28-8.6373-3.28h-3.8267v50.075q0 4.592 0.656 6.7786 0.76533 2.0773 2.7333 3.0613 2.0773 0.87466 6.232 1.0933 0.87466 2.0773 0.87466 6.6693-6.56-0.328-18.04-0.328-13.229 0-20.008 0.328 0-3.7173 0.98399-6.6693 4.264-0.21867 6.3413-1.0933 2.0773-0.984 2.952-3.1707 0.87466-2.1867 0.87466-6.6693v-50.075h-2.7333q-4.4827 0-7.216 1.5307-2.624 1.5307-4.0453 4.4827-1.4213 2.8427-2.5147 7.6533-5.7946 0-8.4186-1.312 0.98399-4.592 1.64-9.84 0.656-5.3573 0.656-9.4026 7.6533 0.328 31.16 0.328 19.461 0 30.941-0.328z"/><path d="m474.3 132.61q5.6853 0.87466 8.0906 3.1706-2.1867 6.6693-3.3893 18.04-10.715-0.21867-26.021-0.21867-15.525 0-31.269 0.328 0-4.3733 0.76533-6.6693 3.0613-0.21867 4.592-1.0933 1.5307-0.984 2.0773-3.28 0.656-2.4053 0.656-7.216v-38.813q0-4.3733-0.656-6.56-0.54666-2.1867-2.0773-3.0613-1.5307-0.87466-4.7013-1.2027-0.65599-2.5147-0.65599-6.6693 8.528 0.328 24.381 0.328 22.523 0 29.957-0.328 0.76533 12.027 2.296 18.368-3.1707 1.7493-8.0906 1.7493-0.87467-6.4506-4.3733-9.9493-3.4987-3.4987-12.027-3.4987h-7.6533v27.333h3.28q6.0133 0 8.2-1.7493t2.296-6.56q3.1706-1.0933 7.544-1.0933-0.328 5.3573-0.328 12.464 0 7.6533 0.328 12.792-4.92 0-7.3253-0.87466-0.43733-4.92-2.7333-6.6693-2.1867-1.8587-7.9813-1.8587h-3.28v15.635q0 4.7013 0.76533 7.1066t2.7333 3.3893q1.968 0.984 5.6853 0.984h1.312q5.576 0 8.856-1.5307t5.1386-4.4827q1.968-2.952 3.608-8.3093z"/><path d="m588.01 147.15q0.65599 2.4053 0.65599 6.7786-4.592-0.328-17.384-0.328-5.6853 0-15.197 0.328 0-3.4986 0.87466-6.6693 4.0453-0.43733 5.4666-1.8587 1.4213-1.4213 1.4213-5.248 0-1.0933-0.43733-6.1226l-3.608-33.675-21.429 53.355q-2.1867 0.87466-6.4506 0.87466l-24.163-53.901-3.0613 29.629q-0.43733 3.608-0.43733 6.9973 0 5.4666 1.64 7.544 1.64 2.0773 5.576 2.4053 0.65599 2.4053 0.65599 6.6693-4.264-0.328-11.808-0.328-4.92 0-12.464 0.328 0-4.3733 0.76533-6.6693 2.952-0.21867 4.592-1.64 1.7493-1.5307 2.8426-5.1386t1.64-10.387l2.952-32.472q0.21867-2.8427 0.21867-3.7173 0-4.4827-1.64-6.1226-1.5307-1.7493-5.576-1.7493-0.76533-2.296-0.76533-6.6693 4.1546 0.328 11.917 0.328 7.9813 0 11.808-0.328l23.397 53.573 20.227-53.573q4.92 0.328 12.355 0.328 6.888 0 11.699-0.328 0 4.0453-0.76533 6.6693-3.936 0-5.6853 1.8587t-1.7493 6.56q0 0.87466 0.21867 3.4987l3.4986 34.877q0.656 6.1226 1.4213 8.9653 0.87466 2.8427 2.296 3.936 1.5307 1.0933 4.4827 1.4213z"/><path d="m627.92 121.13q5.3573 0 8.7466-3.8266 3.4987-3.8267 3.4987-12.573 0-8.6373-3.7173-13.557t-11.371-4.92q-2.5147 0-4.92 0.656v47.779q0 4.7013 0.984 7.3253 1.0933 2.624 3.3893 3.8267 2.296 1.0933 6.4506 1.4213 0.76533 2.0773 0.76533 6.6693-5.576-0.328-17.603-0.328-12.464 0-18.477 0.328 0-4.264 0.656-6.6693 3.0613-0.21867 4.592-1.0933 1.5307-0.984 2.1867-3.1707 0.656-2.1867 0.656-6.6693v-39.469q0-4.4827-0.656-6.56-0.54666-2.1867-2.0773-3.0613-1.4213-0.87466-4.4827-1.2027-0.87466-2.624-0.87466-6.6693 9.512 0.328 16.509 0.328l10.824-0.10933q2.952-0.10933 6.9973-0.10933 27.115 0 27.115 22.085 0 7.4346-3.0613 13.557-3.0613 6.0133-8.9653 9.512-5.904 3.4986-14.213 3.4986-4.4827 0-7.544-1.2027-0.21867-1.5307-0.21867-2.296 0-2.296 0.76533-3.936 1.7493 0.43733 4.0453 0.43733z"/><path d="m701.72 154.59q-11.152 0-19.571-4.8106-8.3093-4.92-12.901-13.557-4.4826-8.7466-4.4826-19.899t4.7013-19.68q4.8106-8.528 13.229-13.229t19.024-4.7013q10.824 0 19.243 4.592t13.12 13.011q4.7013 8.4186 4.7013 19.352 0 11.152-4.7013 20.008-4.592 8.856-13.011 13.885t-19.352 5.0293zm1.7493-6.9973q5.576 0 9.6213-3.7173 4.1547-3.7173 6.3413-10.387t2.1867-15.307q0-9.0746-2.8427-16.509-2.7333-7.4346-7.6533-11.808-4.92-4.3733-11.261-4.3733-5.3573 0-9.512 3.3893-4.0453 3.3893-6.3413 9.84-2.1867 6.3413-2.1867 14.869 0 9.184 2.4053 16.947 2.5147 7.7626 7.4346 12.464 4.92 4.592 11.808 4.592z"/><path d="m805.91 138.08q2.0773 3.608 3.3893 5.3573 1.4213 1.64 3.1706 2.5147 1.8587 0.76533 4.92 0.984 0 3.936-0.87467 6.6693-14.651 0-20.992 0.984-3.0613-5.904-5.4666-11.48l-2.0773-4.592q-2.5147-5.6853-4.8106-9.0746-2.1867-3.3893-5.7946-6.6693l-2.8427 0.10933-2.8427-0.10933v12.901q0 4.8106 0.54667 7.216 0.54666 2.4053 1.8587 3.28 1.312 0.87466 3.8266 1.0933 0.656 2.0773 0.656 6.6693-6.56-0.328-16.181-0.328-8.856 0-15.197 0.328 0-4.264 0.76533-6.6693 3.0613-0.21867 4.592-1.0933 1.5307-0.984 2.0773-3.1707 0.65599-2.1867 0.65599-6.6693v-39.579q0-4.4827-0.65599-6.6693-0.54667-2.1867-2.0773-3.0613t-4.7013-1.0933q-0.656-2.624-0.656-6.56 10.168 0.328 16.181 0.328 1.968 0 8.0906-0.21867 7.6533-0.21867 12.355-0.21867 12.792 0 19.243 5.4666 6.4506 5.4666 6.4506 14.104 0 8.3093-4.592 13.885-4.592 5.4666-12.355 7.544 3.8266 2.624 6.232 6.0133 2.5147 3.28 7.1066 11.808zm-30.285-22.085q7.216 0 12.027-3.936t4.8106-11.371q0-6.9973-3.7173-10.824-3.608-3.936-10.824-3.936-3.4986 0-6.232 0.87466v28.864q2.5147 0.328 3.936 0.328z"/><path d="m894.47 147.26q0.76533 2.624 0.76533 6.6693-5.0293-0.328-14.979-0.328-11.043 0-15.963 0.328 0-4.3733 0.87466-6.6693 2.624-0.43733 3.8267-1.2027 1.2027-0.87467 1.2027-2.4053 0-1.4213-1.4213-4.8106l-2.624-6.232q-14.651 0-26.896 0.76533l-1.4213 3.8266q-1.2027 3.0613-1.2027 5.0293 0 4.3733 5.248 5.0293 0.76533 2.4053 0.76533 6.6693-3.7173-0.328-11.589-0.328-6.56 0-9.84 0.328 0-4.0453 0.98399-6.6693 2.7333-0.43733 4.3733-2.624 1.7493-2.296 4.3733-8.7466l22.851-56.306q1.5307-0.328 3.0613-0.43733 1.5307-0.10933 3.3893-0.10933l25.037 56.306q2.296 5.0293 3.608 7.4346 1.4213 2.4053 2.624 3.3893 1.2027 0.87466 2.952 1.0933zm-30.941-20.664-6.1226-14.213q-3.3893-7.544-5.1386-13.885-1.968 6.56-4.8106 13.885l-5.4666 14.213z"/><path d="m960.4 138.08q2.0773 3.608 3.3893 5.3573 1.4213 1.64 3.1707 2.5147 1.8587 0.76533 4.92 0.984 0 3.936-0.87467 6.6693-14.651 0-20.992 0.984-3.0613-5.904-5.4666-11.48l-2.0773-4.592q-2.5147-5.6853-4.8106-9.0746-2.1867-3.3893-5.7946-6.6693l-2.8427 0.10933-2.8427-0.10933v12.901q0 4.8106 0.54667 7.216 0.54666 2.4053 1.8587 3.28 1.312 0.87466 3.8266 1.0933 0.656 2.0773 0.656 6.6693-6.56-0.328-16.181-0.328-8.856 0-15.197 0.328 0-4.264 0.76533-6.6693 3.0613-0.21867 4.592-1.0933 1.5307-0.984 2.0773-3.1707 0.656-2.1867 0.656-6.6693v-39.579q0-4.4827-0.656-6.6693-0.54666-2.1867-2.0773-3.0613t-4.7013-1.0933q-0.656-2.624-0.656-6.56 10.168 0.328 16.181 0.328 1.968 0 8.0906-0.21867 7.6533-0.21867 12.355-0.21867 12.792 0 19.243 5.4666 6.4506 5.4666 6.4506 14.104 0 8.3093-4.592 13.885-4.592 5.4666-12.355 7.544 3.8266 2.624 6.232 6.0133 2.5147 3.28 7.1066 11.808zm-30.285-22.085q7.216 0 12.027-3.936t4.8106-11.371q0-6.9973-3.7173-10.824-3.608-3.936-10.824-3.936-3.4986 0-6.232 0.87466v28.864q2.5147 0.328 3.936 0.328z"/></g></g></svg>
