<?xml version="1.0" encoding="UTF-8" standalone="no"?>
<svg xmlns="http://www.w3.org/2000/svg" viewBox="0 0 816.09844 389.18775" height="389.18774" width="816.09845">
  <g fill="#231f20">
    <path d="M394.370365 75.0364602h-15.3959995l-24.5053328 48.5839988-24.818666-48.5839988H314.146367l40.2186656 77.0786647z"/>
    <path d="M454.6463636 137.6671253h-39.999999v-19.4906662h24.8173327v-12.457333h-24.8173327V87.5991265h38.535999V75.1404602h-52.4639987v74.9799981h53.9279987z"/>
    <path d="M482.7396962 87.5984199h14.453333c10.5719997 0 16.0146662 5.4479998 16.0146662 11.9386664 0 6.5039998-5.5466665 11.8426663-16.0146662 11.8426663h-14.453333zm0 36.2346657h17.0679996l12.249333 26.2919994h15.3959996l-14.4479996-29.6413326c8.7919998-4.3946666 14.0319996-12.1506664 14.0319996-20.9466661 0-13.5106664-12.1519997-24.3959994-29.7399992-24.3959994h-28.4893327v74.983998h13.9319997z"/>
    <path d="M337.5050332 216.7864167l9.005333 2.4119999c7.4266665 1.9946666 12.8746664 4.1866666 12.8746664 9.9479997 0 5.4426666-5.0199999 9.8426665-16.333333 9.8426665-9.629333 0-18.5359994-3.2333333-28.7959992-11.937333v15.8226662c7.0146665 5.2239999 18.3279995 8.6933331 28.686666 8.6933331 15.7133329 0 30.8959992-8.0733331 30.8959992-23.5733327 0-15.077333-14.453333-20.2026662-23.562666-22.7186661l-9.0106665-2.52c-7.5413332-2.0946666-12.8746664-3.9853332-12.8746664-8.8959997 0-4.9226666 5.2346666-7.6519998 13.4066664-7.6519998 9.109333 0 19.4733328 3.3546665 28.0679993 9.745333V180.343751c-3.672-2.0933333-14.037333-6.8066665-26.8133327-6.8066665-14.7599996 0-28.9053326 6.3746665-28.9053326 21.1559995 0 13.7239996 12.041333 19.0573328 23.358666 22.0933328"/>
    <path d="M429.3076975 251.5677491c11.6239997 0 20.6293328-3.9893332 25.342666-6.6093332v-15.0839996c-6.0773331 5.2399999-16.0253329 9.1146665-25.5559993 9.1146665-16.333333 0-28.0573326-11.405333-28.0573326-26.390666 0-14.9786663 11.7239997-26.390666 28.0573326-26.390666 9.5306664 0 19.4786662 3.8813332 25.5559994 9.105333V180.239751c-4.7133333-2.62-13.7186664-6.5986665-25.342666-6.5986665-23.6666661 0-42.203999 16.7599996-42.203999 38.9573324 0 22.2039994 18.5373329 38.9693323 42.203999 38.9693323"/>
    <path d="M482.6503629 218.3650833h39.9746656v31.7293325h13.9266664V175.103751h-13.9266664v30.3799993H482.650363V175.103751h-13.9319997v74.9906648h13.9319997z"/>
    <path d="M624.3743593 175.1090844l-15.077333 41.6773323-16.7599995-43.2493323-16.7559996 43.2493323-15.0826663-41.6773323h-15.1826663l30.1613326 76.5573314 16.7599996-42.4106656 16.7453329 42.4106656 30.374666-76.5573314z"/>
    <path d="M679.942358 239.098416c-15.0826664 0-26.8173327-11.5146663-26.8173327-26.4999992 0-14.9786663 11.7346663-26.494666 26.8173326-26.494666 15.0786663 0 26.7079994 11.5159997 26.7079994 26.494666 0 14.985333-11.629333 26.4999993-26.7079994 26.4999993m0-65.4573317c-22.6253327 0-40.843999 17.4893329-40.843999 38.9573324 0 21.578666 18.2186663 38.9693323 40.843999 38.9693323 22.5106661 0 40.843999-17.3906662 40.843999-38.9693323 0-21.4679995-18.3333329-38.9573324-40.843999-38.9573324"/>
    <path d="M691.3543576 169.9690845c4.1826666 0 8.2706665-2.932 8.2706665-7.3279998 0-4.292-4.0879999-7.2293332-8.2706665-7.2293332-4.1879998 0-8.2759997 2.9373333-8.2759997 7.2293332 0 4.3959999 4.0879999 7.3279998 8.2759997 7.3279998"/>
    <path d="M668.4223582 169.9690845c4.1866666 0 8.2706665-2.932 8.2706665-7.3279998 0-4.292-4.084-7.2293332-8.2706665-7.2293332-4.1933332 0-8.2759998 2.9373333-8.2759998 7.2293332 0 4.3959999 4.0826666 7.3279998 8.2759998 7.3279998"/>
    <path d="M760.838356 211.3544168h-14.453333V187.573084h14.453333c10.5786663 0 16.0266662 5.4426666 16.0266662 11.937333 0 6.5053333-5.5519999 11.8439998-16.0266663 11.8439998m15.8119996 9.1039998c8.7973331-4.4013333 14.0319997-12.1506664 14.0319997-20.9479995 0-13.505333-12.145333-24.4013327-29.7399993-24.4013327h-28.4839993v74.979998h13.9266663v-26.2813326h17.073333l12.245333 26.2813327h15.3999996z"/>
    <path d="M368.4010324 305.6037478h-40.3226657v-30.374666h-13.9319996v74.9946688h13.9319996v-31.7400032h40.3226657v31.7400032h13.9266663V275.229082h-13.9266663z"/>
    <path d="M415.7916979 326.2397472l12.5679997-24.8173327 12.5679996 24.8173327zm-27.4319993 23.9840034h15.4999996l5.7546665-11.525337h37.5933324l5.8653332 11.525337h15.505333l-40.1146657-77.0773354z"/>
    <path d="M522.8023619 316.2864142c0 14.5679996-8.6933332 22.5159994-19.9999995 22.5159994-11.313333 0-20.1093329-8.1719998-20.1093329-22.5159994v-41.259999H468.76503v42.1093323c0 21.3586661 14.8759996 34.2346698 34.0373325 34.2346698 19.1613328 0 33.9319991-13.193337 33.9319991-34.2346698v-42.1093323H522.802362z"/>
    <path d="M585.229027 305.1877478l-9.0159998-2.5106666c-7.5359998-2.0933333-12.8746664-3.9733333-12.8746664-8.9013331 0-4.916 5.2293333-7.6399998 13.4066664-7.6399998 9.109333 0 19.4786662 3.3479999 28.062666 9.7346664v-15.5946663c-3.6613333-2.0986666-14.0319997-6.8173332-26.8133327-6.8173332-14.765333 0-28.8999993 6.3906665-28.8999993 21.1559995 0 13.7239997 12.041333 19.0573329 23.3533328 22.0933328l9.0106664 2.4066666c7.4319998 1.9946666 12.8746663 4.1879999 12.8746663 9.9586664 0 5.4426665-5.0199998 9.8386664-16.3386662 9.8386664-9.6346664 0-18.5359996-3.2506666-28.8013326-11.9426663v15.8226662c7.0199998 5.2239999 18.3333328 8.6826705 28.6973326 8.6826705 15.713333 0 30.8959992-8.0573371 30.8959992-23.5573368 0-15.0786662-14.453333-20.2093328-23.5573327-22.7293327"/>
    <path d="M139.1410381 150.0264183v-.0106666h-24.994666v25.010666h24.994666z"/>
    <path d="M39.1610406 325.0210806v-175.005329h24.994666V125.010419H89.151706v-24.9999993h24.994666v-24.994666h24.9999995v24.994666h24.994666v24.9999993h24.994666v25.0053328h24.994666v125.0159968h-24.994666v24.9733327h24.994666v50.0160028h-49.989332v-74.9893355H64.1557067v49.9893321h49.9906654v25.0160034H39.1610406zm-14.1666663 39.1666697H264.125035V25.0104214H24.9943743z"/>
  </g>
</svg>
