<?xml version="1.0" encoding="UTF-8"?>
<svg width="240" height="240" version="1.1" viewBox="0 0 240 240" xml:space="preserve" xmlns="http://www.w3.org/2000/svg"><g transform="translate(-30,-30)" fill="#231f20"><path d="m187.5 65v30.909h-12.5v30.909h-12.5v-30.909h-50v-30.909h12.5v15.455h50v-15.455zm-75 30.909v30.909h-12.5v-30.909zm-12.5 30.909v30.909h-12.5v-30.909zm-12.5 30.909v30.909h-12.5v-30.909zm-12.5 30.909v30.909h50v-30.909h12.5v30.909h12.5v-15.455h12.5v15.455h37.5v-15.455h12.5v15.455h12.5v-30.909h12.5v30.909h12.5v15.455h-200v-15.455h12.5v-30.909zm150 0h-12.5v-30.909h12.5zm-12.5-30.909h-12.5v-30.909h12.5zm-12.5-30.909h-12.5v-30.909h12.5zm0 77.273h-12.5v-30.909h12.5zm-12.5-30.909h-12.5v-30.909h12.5zm-12.5 0v30.909h-12.5v-30.909zm-37.5 15.455v-30.909h12.5v30.909zm12.5-30.909v-30.909h12.5v30.909zm-25-15.455v30.909h-12.5v-30.909zm-12.5 30.909v30.909h-12.5v-30.909z" fill="#007236"/></g></svg>
