<?xml version="1.0" encoding="UTF-8" standalone="no"?><!DOCTYPE svg PUBLIC "-//W3C//DTD SVG 1.1//EN" "http://www.w3.org/Graphics/SVG/1.1/DTD/svg11.dtd"><svg width="100%" height="100%" viewBox="0 0 256 256" version="1.1" xmlns="http://www.w3.org/2000/svg" xmlns:xlink="http://www.w3.org/1999/xlink" xml:space="preserve" style="fill-rule:evenodd;clip-rule:evenodd;stroke-linejoin:round;stroke-miterlimit:2;"><path d="M138.714,31.544l21.429,0l0,21.433l21.428,0l0,21.434l21.429,0l0,107.173l-21.429,0l0,21.413l21.429,0l0,42.878l-42.857,0l0,-64.291l-85.714,0l0,42.857l42.857,0l0,21.444l-64.286,0l0,-171.474l21.429,0l0,-21.434l21.428,0l0,-21.433l21.429,0l0,-21.429l21.428,0l0,21.429Zm-0.002,42.866l-21.428,0l0,21.444l21.428,0l0,-21.444Z" style="fill:#c45729;fill-rule:nonzero;"/></svg>